<svg id="svg" version="1.1" xmlns="http://www.w3.org/2000/svg" xmlns:xlink="http://www.w3.org/1999/xlink" width="400" height="300" viewBox="0, 0, 400,300"><g id="svgg"><path id="path0" d="M22.806 24.606 C 22.558 24.766,21.737 24.899,20.980 24.902 C 19.353 24.907,16.204 25.499,16.204 25.800 C 16.204 25.915,15.871 26.162,15.463 26.348 C 13.232 27.364,11.351 30.024,10.611 33.208 C 10.103 35.392,10.058 37.890,9.972 68.342 L 9.880 101.125 200.000 101.125 L 390.120 101.125 390.028 68.342 C 389.942 37.890,389.897 35.392,389.389 33.208 C 388.649 30.024,386.768 27.364,384.537 26.348 C 384.129 26.162,383.796 25.909,383.796 25.786 C 383.796 25.583,382.279 25.282,378.395 24.714 C 376.141 24.384,23.314 24.277,22.806 24.606 M212.003 49.062 L 212.003 65.266 209.377 65.353 L 206.752 65.440 206.752 49.062 L 206.752 32.685 209.377 32.772 L 212.003 32.858 212.003 49.062 M223.183 48.987 L 223.106 65.266 220.555 65.266 L 218.005 65.266 217.927 48.987 L 217.849 32.708 220.555 32.708 L 223.261 32.708 223.183 48.987 M156.339 40.810 L 156.339 46.812 163.241 46.812 L 170.143 46.812 170.143 40.810 L 170.143 34.809 172.996 34.809 L 175.849 34.809 175.772 50.038 L 175.694 65.266 172.993 65.266 L 170.293 65.266 170.212 58.590 L 170.131 51.913 163.241 51.913 L 156.351 51.913 156.270 58.590 L 156.189 65.266 153.413 65.353 L 150.638 65.439 150.638 50.124 L 150.638 34.809 153.488 34.809 L 156.339 34.809 156.339 40.810 M196.402 44.965 C 199.952 46.644,201.923 50.209,201.943 54.989 L 201.950 56.714 194.149 56.714 C 185.447 56.714,185.820 56.606,186.937 58.796 C 188.534 61.926,193.385 62.338,196.340 59.595 C 197.392 58.618,197.199 58.584,199.122 60.086 C 201.058 61.598,201.072 61.680,199.620 63.097 C 193.868 68.714,182.785 65.263,181.233 57.373 C 179.469 48.405,188.338 41.150,196.402 44.965 M244.111 44.994 C 250.318 47.867,252.425 55.139,248.766 61.060 C 244.551 67.879,232.466 67.056,229.004 59.715 C 224.639 50.459,234.712 40.644,244.111 44.994 M189.169 48.567 C 187.915 49.153,186.859 50.501,186.487 51.988 L 186.282 52.813 191.275 52.813 C 196.994 52.813,197.139 52.743,195.967 50.536 C 194.801 48.337,191.626 47.417,189.169 48.567 M236.563 49.530 C 234.280 50.660,232.928 53.603,233.507 56.180 C 235.090 63.228,245.161 62.134,245.161 54.914 C 245.161 50.423,240.568 47.547,236.563 49.530 M244.106 71.605 C 244.821 72.321,244.558 73.305,243.557 73.656 C 242.206 74.129,241.308 72.613,242.332 71.589 C 242.935 70.986,243.492 70.991,244.106 71.605 M153.915 76.996 L 154.839 77.773 155.762 76.996 C 157.352 75.658,160.560 76.107,161.493 77.798 C 161.717 78.203,161.913 80.109,161.987 82.596 L 162.109 86.722 161.174 86.722 L 160.240 86.722 160.238 83.796 C 160.236 79.285,159.686 78.020,157.726 78.020 C 155.843 78.020,155.299 79.109,155.189 83.094 L 155.089 86.722 154.253 86.722 L 153.418 86.722 153.276 82.776 C 153.119 78.436,152.933 78.020,151.157 78.020 C 149.189 78.020,148.537 79.320,148.537 83.248 L 148.537 86.722 147.487 86.722 L 146.437 86.722 146.437 81.620 L 146.437 76.519 147.337 76.519 C 147.937 76.519,148.237 76.669,148.237 76.969 C 148.237 77.490,148.709 77.569,149.000 77.098 C 149.684 75.993,152.650 75.931,153.915 76.996 M189.500 77.122 C 190.551 78.109,190.844 79.464,190.846 83.346 L 190.848 86.722 189.947 86.722 L 189.047 86.722 189.047 83.616 C 189.047 78.527,187.930 77.030,185.190 78.447 C 183.950 79.088,183.646 80.101,183.646 83.585 L 183.646 86.722 182.596 86.722 L 181.545 86.722 181.545 81.620 L 181.545 76.519 182.414 76.519 C 182.909 76.519,183.356 76.713,183.455 76.970 C 183.602 77.355,183.773 77.330,184.612 76.804 C 185.960 75.957,188.432 76.118,189.500 77.122 M200.273 76.639 C 201.722 77.244,202.212 78.816,202.316 83.196 L 202.401 86.722 201.566 86.722 C 201.107 86.722,200.661 86.537,200.574 86.312 C 200.447 85.981,200.209 86.009,199.320 86.462 C 195.036 88.646,191.033 84.031,194.790 81.241 C 195.339 80.833,196.298 80.594,197.917 80.462 C 200.536 80.247,200.883 79.926,199.736 78.778 C 198.838 77.880,197.702 77.803,195.912 78.519 C 194.726 78.994,194.643 78.992,194.261 78.469 C 193.102 76.884,197.590 75.518,200.273 76.639 M212.899 77.115 L 213.625 77.797 214.562 77.008 C 215.262 76.419,215.833 76.219,216.813 76.219 C 220.045 76.219,220.855 77.574,220.855 82.978 L 220.855 86.760 219.880 86.666 L 218.905 86.572 218.755 82.721 C 218.590 78.495,218.374 78.020,216.614 78.020 C 214.659 78.020,214.116 79.072,213.997 83.094 L 213.890 86.722 213.022 86.722 L 212.153 86.722 212.153 83.466 C 212.153 78.685,211.441 77.409,209.216 78.201 C 207.664 78.755,207.221 79.851,207.098 83.437 L 206.985 86.722 206.118 86.722 L 205.251 86.722 205.206 82.071 C 205.182 79.512,205.148 77.251,205.131 77.044 C 205.114 76.832,205.525 76.628,206.077 76.575 C 206.914 76.494,207.052 76.576,207.052 77.153 L 207.052 77.824 207.727 77.210 C 209.078 75.981,211.641 75.934,212.899 77.115 M231.499 76.936 C 232.419 77.539,233.360 79.450,233.509 81.020 L 233.608 82.071 229.482 82.154 C 224.802 82.249,224.574 82.399,226.377 84.201 C 227.606 85.431,229.491 85.612,230.758 84.621 C 232.069 83.595,233.730 84.392,232.686 85.546 C 230.433 88.036,225.396 87.210,223.887 84.103 C 221.526 79.244,227.064 74.030,231.499 76.936 M252.888 76.816 C 253.451 77.159,253.863 77.658,253.863 77.995 C 253.863 78.805,252.798 79.077,251.909 78.495 C 250.208 77.380,247.740 78.498,249.038 79.796 C 249.381 80.139,249.831 80.421,250.038 80.422 C 254.296 80.441,256.132 85.079,252.484 86.603 C 249.669 87.779,245.288 86.162,246.906 84.544 L 247.550 83.899 248.444 84.560 C 250.003 85.713,252.363 85.287,252.363 83.854 C 252.363 83.044,251.918 82.770,249.690 82.206 C 247.315 81.606,246.076 79.675,246.981 77.984 C 247.879 76.305,251.029 75.682,252.888 76.816 M167.292 80.120 C 168.797 83.949,168.990 84.193,169.483 82.896 C 169.656 82.442,170.151 81.125,170.583 79.970 C 171.912 76.420,171.847 76.519,172.837 76.519 C 174.103 76.519,174.269 75.902,170.238 86.122 C 168.071 91.615,166.360 93.235,164.184 91.856 C 163.452 91.392,164.065 90.323,165.061 90.323 C 166.169 90.323,167.005 89.500,167.468 87.955 C 167.871 86.606,168.014 87.102,165.443 80.922 C 163.549 76.371,163.568 76.519,164.859 76.519 L 165.876 76.519 167.292 80.120 M244.261 81.620 L 244.261 86.722 243.211 86.722 L 242.161 86.722 242.161 81.620 L 242.161 76.519 243.211 76.519 L 244.261 76.519 244.261 81.620 M227.007 78.351 C 226.358 78.726,225.374 79.830,225.363 80.195 C 225.359 80.319,226.707 80.420,228.357 80.420 C 231.600 80.420,231.890 80.244,230.821 78.923 C 230.190 78.144,227.945 77.807,227.007 78.351 M197.149 82.132 C 195.346 82.476,194.747 84.213,196.119 85.112 C 197.644 86.111,200.709 84.259,200.383 82.536 C 200.291 82.051,198.647 81.846,197.149 82.132 M9.902 247.345 C 9.902 254.620,10.652 260.436,11.774 261.865 C 12.857 263.246,15.476 265.560,16.307 265.872 C 16.828 266.067,17.579 266.382,17.975 266.572 C 19.014 267.069,380.986 267.069,382.025 266.572 C 382.421 266.382,383.172 266.067,383.693 265.872 C 384.524 265.560,387.143 263.246,388.226 261.865 C 389.348 260.436,390.098 254.620,390.098 247.345 L 390.098 241.860 200.000 241.860 L 9.902 241.860 9.902 247.345 " stroke="none" fill="#000000" fill-rule="evenodd"></path><path id="path1" d="M207.052 49.062 L 207.052 65.116 209.302 65.116 L 211.553 65.116 211.553 49.062 L 211.553 33.008 209.302 33.008 L 207.052 33.008 207.052 49.062 M218.155 49.062 L 218.155 65.116 220.555 65.116 L 222.956 65.116 222.956 49.062 L 222.956 33.008 220.555 33.008 L 218.155 33.008 218.155 49.062 M150.938 49.962 L 150.938 65.116 153.333 65.116 L 155.727 65.116 155.808 58.440 L 155.889 51.763 163.091 51.763 L 170.293 51.763 170.373 58.440 L 170.454 65.116 173.002 65.116 L 175.549 65.116 175.472 50.038 L 175.394 34.959 172.918 34.872 L 170.443 34.784 170.443 40.953 L 170.443 47.122 163.166 47.042 L 155.889 46.962 155.808 40.885 L 155.727 34.809 153.332 34.809 L 150.938 34.809 150.938 49.962 M188.745 44.821 C 181.870 46.808,179.014 55.208,183.180 61.186 C 186.612 66.113,195.095 66.926,199.625 62.762 C 200.703 61.771,200.702 61.767,198.933 60.358 L 197.415 59.150 195.863 60.325 C 192.383 62.958,187.479 61.875,186.387 58.232 C 185.832 56.378,185.681 56.414,194.016 56.414 L 201.650 56.414 201.648 55.439 C 201.630 47.435,195.929 42.745,188.745 44.821 M235.859 44.851 C 225.684 47.762,225.960 62.952,236.228 65.131 C 243.986 66.777,250.090 62.274,250.077 54.914 C 250.063 47.471,243.338 42.711,235.859 44.851 M194.567 48.572 C 195.778 49.255,196.499 50.343,196.729 51.838 L 196.926 53.113 191.654 53.113 C 185.909 53.113,185.928 53.119,186.380 51.481 C 187.253 48.320,191.465 46.823,194.567 48.572 M242.150 49.305 C 246.531 51.456,246.500 58.382,242.100 60.565 C 236.853 63.168,231.445 57.987,233.578 52.401 C 234.838 49.101,238.810 47.666,242.150 49.305 M242.591 71.845 C 241.993 72.282,242.174 73.127,242.927 73.416 C 243.548 73.655,244.337 72.866,244.099 72.245 C 243.837 71.562,243.206 71.395,242.591 71.845 M149.316 77.269 C 147.983 78.174,147.937 78.179,147.937 77.419 C 147.937 77.019,147.737 76.819,147.337 76.819 C 146.761 76.819,146.737 77.019,146.737 81.770 C 146.737 86.522,146.761 86.722,147.337 86.722 C 147.891 86.722,147.937 86.521,147.939 84.096 C 147.942 79.593,148.893 77.719,151.178 77.719 C 153.185 77.719,153.472 78.330,153.587 82.851 C 153.679 86.434,153.729 86.722,154.262 86.722 C 154.794 86.722,154.839 86.478,154.839 83.590 C 154.839 79.134,155.549 77.719,157.787 77.719 C 159.883 77.719,160.306 78.544,160.476 82.964 C 160.608 86.379,160.672 86.722,161.181 86.722 C 162.054 86.722,162.019 79.530,161.139 78.087 C 159.919 76.086,156.320 76.000,155.154 77.944 C 154.854 78.445,154.824 78.445,154.524 77.944 C 153.624 76.445,151.026 76.108,149.316 77.269 M184.996 76.992 C 184.501 77.250,183.987 77.657,183.853 77.897 C 183.539 78.457,183.046 78.155,183.046 77.402 C 183.046 77.009,182.839 76.819,182.414 76.819 C 181.960 76.819,181.833 76.954,181.963 77.294 C 182.064 77.555,182.146 79.783,182.146 82.245 C 182.146 86.522,182.172 86.722,182.746 86.722 C 183.308 86.722,183.346 86.522,183.346 83.556 C 183.346 79.221,184.197 77.719,186.656 77.719 C 188.702 77.719,188.879 78.077,189.047 82.571 C 189.192 86.439,189.220 86.575,189.872 86.668 C 190.776 86.796,190.914 80.232,190.046 78.403 C 189.229 76.681,186.861 76.020,184.996 76.992 M195.737 76.901 C 194.386 77.418,194.020 77.840,194.545 78.275 C 194.871 78.546,195.166 78.523,195.834 78.175 C 197.937 77.078,200.558 77.911,200.392 79.624 C 200.301 80.565,200.288 80.571,198.179 80.782 C 195.282 81.071,194.502 81.418,193.988 82.650 C 192.683 85.773,196.444 88.040,199.491 85.967 L 200.600 85.212 200.762 85.892 C 200.863 86.314,201.192 86.610,201.630 86.673 C 202.184 86.753,202.294 86.668,202.143 86.273 C 202.037 85.998,201.950 84.192,201.950 82.260 C 201.950 77.140,199.848 75.327,195.737 76.901 M208.131 77.269 C 206.802 78.171,206.860 78.165,206.665 77.419 C 206.578 77.089,206.293 76.819,206.030 76.819 C 205.611 76.819,205.551 77.440,205.551 81.770 C 205.551 86.522,205.576 86.722,206.152 86.722 C 206.697 86.722,206.752 86.522,206.752 84.512 C 206.752 79.621,207.670 77.719,210.033 77.719 C 211.793 77.719,211.982 78.158,212.153 82.640 C 212.298 86.436,212.326 86.575,212.978 86.668 C 213.642 86.762,213.653 86.710,213.653 83.582 C 213.653 79.142,214.345 77.719,216.504 77.719 C 218.660 77.719,219.355 79.144,219.355 83.561 C 219.355 86.522,219.393 86.722,219.955 86.722 C 220.652 86.722,220.853 81.055,220.235 78.829 C 219.525 76.273,216.302 75.739,214.036 77.802 C 213.429 78.355,213.352 78.364,213.175 77.903 C 212.623 76.466,209.831 76.115,208.131 77.269 M226.400 76.938 C 222.854 78.483,222.696 84.014,226.138 86.141 C 228.369 87.520,233.597 86.084,232.251 84.462 C 231.912 84.054,231.807 84.070,231.315 84.598 C 229.548 86.495,225.840 85.373,225.194 82.746 L 224.991 81.920 229.075 81.920 L 233.158 81.920 233.158 80.855 C 233.158 77.657,229.549 75.566,226.400 76.938 M248.561 76.957 C 245.789 78.162,246.655 81.183,249.976 81.895 C 252.534 82.444,253.353 83.631,252.063 84.921 C 251.275 85.709,249.378 85.724,248.423 84.950 C 247.729 84.388,246.662 84.544,246.662 85.207 C 246.662 85.851,248.725 86.722,250.252 86.722 C 255.155 86.722,255.683 81.825,250.878 80.909 C 249.377 80.622,248.462 79.927,248.462 79.073 C 248.462 77.797,250.639 77.236,251.972 78.169 C 252.668 78.657,253.563 78.489,253.563 77.872 C 253.563 76.788,250.314 76.194,248.561 76.957 M164.241 77.194 C 164.955 78.822,167.822 85.779,167.949 86.193 C 168.454 87.831,167.022 90.239,165.337 90.583 C 163.748 90.908,163.731 91.823,165.315 91.823 C 167.389 91.823,167.998 90.955,170.583 84.321 C 171.837 81.103,172.993 78.235,173.153 77.949 C 173.607 77.133,173.500 76.819,172.766 76.819 C 172.043 76.819,172.153 76.600,170.157 81.995 C 168.982 85.170,168.948 85.177,167.910 82.446 C 167.455 81.249,166.902 79.863,166.682 79.365 C 166.461 78.868,166.140 78.091,165.968 77.640 C 165.737 77.033,165.451 76.819,164.867 76.819 C 164.347 76.819,164.133 76.948,164.241 77.194 M242.761 81.792 C 242.761 86.367,242.803 86.758,243.286 86.665 C 244.163 86.496,244.244 76.819,243.368 76.819 C 242.783 76.819,242.761 76.999,242.761 81.792 M230.781 78.597 C 231.302 79.118,231.658 79.791,231.658 80.257 L 231.658 81.041 228.432 80.955 L 225.206 80.870 225.282 80.120 C 225.510 77.871,229.069 76.884,230.781 78.597 M200.564 81.862 C 200.877 82.369,200.156 84.465,199.493 84.975 C 197.273 86.683,194.178 85.159,195.365 82.941 C 195.939 81.869,200.042 81.017,200.564 81.862 M10.503 171.643 L 10.503 241.860 200.000 241.860 L 389.497 241.860 389.497 171.643 L 389.497 101.425 200.000 101.425 L 10.503 101.425 10.503 171.643 M311.355 142.682 C 312.165 142.928,313.178 143.131,313.606 143.133 C 314.182 143.135,314.510 143.389,314.870 144.111 C 315.954 146.283,316.579 148.064,316.579 148.975 C 316.579 150.339,316.715 150.369,318.515 149.394 C 319.400 148.914,321.251 148.244,322.628 147.904 C 324.005 147.564,326.441 146.888,328.042 146.403 C 331.737 145.282,335.566 144.435,340.135 143.727 C 342.116 143.420,344.991 142.957,346.525 142.699 C 348.478 142.370,349.484 142.320,349.881 142.532 C 350.266 142.738,350.713 142.735,351.270 142.523 C 352.010 142.242,352.198 142.320,353.148 143.298 C 353.729 143.895,354.840 144.707,355.617 145.101 C 357.730 146.171,357.864 148.473,355.948 150.788 C 354.316 152.761,351.137 154.146,346.310 154.986 C 343.025 155.559,339.981 156.432,338.977 157.089 C 338.545 157.372,337.413 157.718,336.462 157.858 C 333.439 158.301,332.057 158.616,331.133 159.071 C 330.227 159.517,330.182 159.701,330.558 161.411 L 330.717 162.132 334.976 161.936 C 337.318 161.828,340.349 161.652,341.710 161.545 C 344.076 161.360,344.186 161.379,344.186 161.972 C 344.186 162.672,347.324 165.639,348.072 165.646 C 349.596 165.661,350.105 168.191,348.822 169.380 C 347.462 170.641,344.108 172.742,342.122 173.578 C 339.916 174.507,331.747 175.062,328.515 174.504 C 327.119 174.263,322.982 181.456,324.107 182.168 C 324.751 182.575,328.704 182.495,331.733 182.014 C 333.218 181.778,335.716 181.491,337.284 181.376 C 338.852 181.262,340.473 181.001,340.885 180.797 C 341.298 180.592,342.176 180.331,342.836 180.216 C 343.496 180.101,344.951 179.790,346.070 179.525 L 348.103 179.043 349.616 180.587 C 350.448 181.437,351.482 182.304,351.914 182.514 C 352.364 182.733,352.798 183.269,352.931 183.770 C 353.059 184.251,353.337 184.754,353.551 184.888 C 354.784 185.662,351.097 189.984,347.937 191.468 C 345.687 192.524,337.314 194.278,335.729 194.024 C 335.089 193.922,333.763 194.062,332.578 194.357 C 327.090 195.723,318.659 194.936,315.854 192.797 C 312.253 190.050,310.386 181.089,312.533 176.857 C 312.942 176.052,313.276 175.164,313.277 174.884 C 313.278 174.604,313.616 174.010,314.029 173.565 C 314.441 173.120,314.779 172.607,314.780 172.424 C 314.780 172.242,315.658 170.143,316.730 167.760 C 318.786 163.189,318.937 162.627,318.255 162.062 C 317.593 161.512,316.306 158.024,316.091 156.194 C 315.840 154.057,315.818 154.065,313.345 157.196 C 312.190 158.658,311.036 160.110,310.779 160.422 C 305.766 166.526,302.017 171.904,300.266 175.502 C 299.681 176.703,298.724 178.179,298.139 178.782 C 297.553 179.384,297.074 180.133,297.074 180.444 C 297.074 181.340,295.277 184.478,293.863 186.050 C 292.697 187.347,292.573 187.633,292.573 189.026 C 292.573 193.437,288.257 196.866,284.726 195.260 C 282.857 194.410,280.270 191.554,280.269 190.338 C 280.268 189.678,279.988 188.755,279.603 188.147 C 279.237 187.569,278.700 186.084,278.409 184.846 C 277.020 178.922,276.069 173.925,276.069 172.545 C 276.069 171.708,275.847 170.521,275.576 169.908 C 275.193 169.041,275.032 167.253,274.852 161.890 C 274.725 158.095,274.466 153.580,274.278 151.858 C 273.636 146.000,276.069 142.179,279.358 143.880 C 280.427 144.433,281.470 145.728,281.470 146.503 C 281.470 146.825,281.953 147.515,282.544 148.038 C 285.177 150.366,286.629 154.269,287.326 160.889 C 288.045 167.720,288.433 170.443,288.686 170.443 C 288.924 170.443,290.969 167.277,294.987 160.690 C 299.639 153.066,302.806 148.887,307.776 143.816 C 309.525 142.032,309.371 142.081,311.355 142.682 M259.811 143.821 C 259.987 144.034,260.423 145.283,260.779 146.597 C 261.142 147.938,261.728 149.316,262.115 149.737 C 262.634 150.303,262.884 151.101,263.131 152.986 C 263.312 154.361,263.686 155.869,263.963 156.338 C 264.454 157.169,264.428 157.311,262.936 161.941 C 259.244 173.401,258.299 180.315,259.455 187.424 C 260.485 193.755,258.459 196.455,252.879 196.188 L 251.013 196.099 250.200 194.599 C 249.067 192.507,246.283 183.958,246.306 182.643 C 246.430 175.709,247.344 169.448,249.074 163.691 C 249.796 161.288,250.072 159.772,250.089 158.118 C 250.107 156.376,250.235 155.723,250.638 155.321 C 250.961 154.998,251.163 154.339,251.163 153.607 C 251.163 152.934,251.488 151.776,251.913 150.938 C 252.326 150.124,252.663 148.988,252.663 148.414 C 252.663 146.147,258.584 142.342,259.811 143.821 M214.488 145.488 C 218.894 146.595,221.099 149.689,219.702 152.804 C 219.386 153.510,219.027 154.426,218.905 154.839 C 218.783 155.251,218.092 157.112,217.369 158.974 C 216.646 160.836,216.054 162.586,216.054 162.862 C 216.054 163.138,215.598 164.383,215.042 165.628 C 214.485 166.873,213.757 168.837,213.424 169.992 C 213.091 171.148,212.396 173.241,211.879 174.644 C 210.749 177.710,209.752 181.469,209.752 182.668 C 209.752 183.695,212.344 184.028,213.935 183.205 C 217.954 181.127,229.579 180.871,232.858 182.789 C 233.601 183.223,234.884 183.796,235.709 184.063 C 238.536 184.976,239.056 185.466,239.301 187.444 C 239.420 188.408,239.645 189.352,239.800 189.542 C 240.273 190.118,239.914 192.137,239.279 192.473 C 238.966 192.639,238.305 193.045,237.809 193.376 C 236.973 193.936,236.478 193.974,230.786 193.914 C 223.972 193.842,220.335 194.239,216.586 195.463 C 208.415 198.130,202.694 197.899,200.497 194.814 C 197.625 190.781,196.346 186.671,196.696 182.601 C 196.901 180.223,198.150 174.805,198.631 174.206 C 198.769 174.034,198.947 173.353,199.026 172.693 C 199.105 172.033,199.735 169.940,200.427 168.042 C 201.119 166.144,201.933 163.848,202.236 162.941 C 202.539 162.033,203.462 159.332,204.286 156.939 C 205.776 152.611,207.071 148.277,207.560 145.986 C 207.933 144.236,209.361 143.526,210.922 144.316 C 211.516 144.617,213.121 145.144,214.488 145.488 M177.929 145.052 C 179.158 145.267,180.209 145.579,180.265 145.745 C 180.320 145.911,181.103 147.162,182.005 148.525 C 182.908 149.889,183.646 151.139,183.646 151.303 C 183.646 151.467,183.990 152.011,184.411 152.511 C 185.686 154.026,185.378 155.572,183.550 156.829 L 182.104 157.823 178.899 157.655 C 177.136 157.563,174.344 157.622,172.693 157.786 C 170.897 157.964,169.578 157.974,169.407 157.812 C 168.963 157.387,166.403 157.492,164.920 157.995 C 164.182 158.246,162.996 158.578,162.284 158.733 C 160.981 159.018,157.175 160.022,156.990 160.130 C 156.442 160.451,157.868 161.482,159.580 162.002 C 160.710 162.345,161.882 162.900,162.186 163.236 C 162.490 163.572,163.263 164.003,163.904 164.195 C 165.433 164.654,166.712 166.153,167.301 168.179 C 167.594 169.189,167.978 169.877,168.305 169.981 C 168.596 170.073,169.067 170.586,169.351 171.121 C 169.635 171.656,170.315 172.720,170.862 173.487 C 174.680 178.842,170.405 187.946,161.590 193.226 C 157.831 195.479,152.728 197.668,150.716 197.891 C 150.095 197.960,149.098 198.141,148.501 198.293 C 147.903 198.445,146.453 198.540,145.278 198.504 C 143.005 198.435,143.201 198.548,141.420 196.267 C 141.219 196.010,141.050 195.360,141.045 194.824 C 141.040 194.287,140.922 193.848,140.785 193.848 C 140.647 193.848,140.514 192.581,140.489 191.033 C 140.425 187.041,140.651 186.792,144.548 186.562 C 148.548 186.325,159.904 181.648,160.500 179.992 C 160.560 179.824,161.202 179.020,161.925 178.206 C 163.879 176.005,163.708 175.293,160.954 174.154 C 157.268 172.630,154.681 171.991,150.788 171.645 C 144.770 171.110,140.135 170.085,140.135 169.290 C 140.135 169.135,139.831 168.926,139.460 168.828 C 137.984 168.435,137.164 166.552,136.830 162.791 C 136.454 158.546,138.957 155.163,144.110 152.956 C 160.209 146.061,170.270 143.709,177.929 145.052 M128.508 145.508 C 128.901 145.658,130.133 146.478,131.245 147.330 C 132.358 148.183,133.657 149.016,134.133 149.182 C 135.441 149.638,138.044 153.516,138.028 154.986 C 138.019 155.882,136.696 159.467,136.016 160.442 C 135.349 161.396,135.345 161.412,134.122 168.636 C 133.633 171.522,133.233 174.572,133.233 175.415 C 133.233 176.259,133.023 177.612,132.767 178.422 C 132.510 179.232,131.989 180.932,131.608 182.199 C 131.218 183.496,130.454 185.136,129.861 185.950 C 129.281 186.746,128.450 188.106,128.014 188.972 C 127.578 189.839,127.018 190.548,126.769 190.548 C 126.506 190.548,126.241 190.925,126.137 191.448 C 126.038 191.943,125.872 192.350,125.769 192.352 C 125.666 192.354,124.636 193.165,123.481 194.154 C 119.053 197.943,115.987 197.323,110.563 191.542 C 108.576 189.424,107.220 187.457,105.896 184.771 C 104.670 182.284,104.599 182.282,103.514 184.674 C 103.033 185.735,102.493 186.693,102.314 186.804 C 102.135 186.914,101.856 187.296,101.694 187.651 C 101.532 188.006,101.205 188.635,100.967 189.047 C 100.729 189.460,100.528 190.270,100.520 190.848 C 100.512 191.425,100.308 192.160,100.065 192.480 C 99.823 192.801,99.625 193.379,99.625 193.765 C 99.625 195.062,98.839 196.429,97.861 196.834 C 97.346 197.047,96.924 197.408,96.924 197.636 C 96.924 197.863,96.661 198.050,96.338 198.050 C 96.016 198.050,95.427 198.198,95.029 198.379 C 93.583 199.038,90.881 196.439,89.071 192.648 C 88.795 192.071,88.221 190.878,87.796 189.998 C 87.370 189.118,87.022 187.945,87.022 187.392 C 87.022 186.838,86.888 186.034,86.725 185.605 C 86.414 184.787,87.519 182.063,91.939 172.744 C 92.866 170.792,93.623 169.151,93.623 169.098 C 93.623 169.046,94.434 167.299,95.424 165.216 C 96.414 163.133,97.224 161.375,97.224 161.309 C 97.224 161.243,97.815 159.929,98.537 158.389 C 99.259 156.849,100.761 153.530,101.875 151.013 C 104.132 145.913,103.948 146.059,106.639 147.251 C 111.969 149.612,116.656 154.813,115.469 157.048 C 115.305 157.355,115.238 157.953,115.319 158.377 C 115.400 158.801,115.364 159.360,115.240 159.619 C 114.801 160.531,114.029 163.178,114.029 163.769 C 114.029 164.098,113.853 164.513,113.639 164.691 C 113.227 165.033,113.192 174.523,113.588 178.468 C 113.812 180.700,114.041 180.672,116.615 178.098 C 120.056 174.656,121.911 169.339,123.317 158.887 C 123.725 155.855,124.091 154.267,124.630 153.186 C 125.041 152.362,125.532 151.080,125.721 150.338 C 126.364 147.808,127.280 145.236,127.537 145.236 C 127.678 145.236,128.115 145.359,128.508 145.508 M53.113 147.643 C 54.021 147.937,55.608 148.529,56.639 148.958 C 57.671 149.387,59.359 150.089,60.390 150.518 C 61.422 150.947,63.508 151.681,65.027 152.149 C 68.873 153.335,76.695 158.622,80.617 162.688 C 86.090 168.362,87.854 175.713,84.831 180.250 C 81.141 185.788,74.778 190.262,63.916 194.956 C 62.183 195.705,60.360 196.498,59.865 196.717 C 51.535 200.414,50.901 200.494,48.985 198.087 C 47.144 195.772,45.818 189.525,46.686 187.247 C 47.170 185.976,49.108 178.530,49.353 176.999 C 49.449 176.397,49.727 175.739,49.970 175.537 C 50.925 174.745,50.135 163.605,48.892 160.338 C 48.389 159.013,48.848 156.967,49.697 156.754 C 50.568 156.535,50.568 156.526,49.769 154.091 C 48.831 151.233,49.676 146.359,51.012 146.918 C 51.260 147.022,52.206 147.348,53.113 147.643 M57.922 160.580 C 57.925 160.806,58.198 162.003,58.528 163.241 C 59.777 167.927,59.973 177.779,58.922 183.035 C 58.732 183.983,59.369 184.034,60.765 183.180 C 61.095 182.979,62.108 182.580,63.016 182.293 C 63.923 182.007,65.071 181.407,65.566 180.960 C 66.062 180.513,67.339 179.767,68.406 179.301 C 72.614 177.463,75.636 175.114,76.873 172.722 L 77.478 171.551 74.373 168.534 C 71.203 165.454,67.666 163.269,64.816 162.630 C 64.239 162.501,62.686 161.967,61.365 161.444 C 58.086 160.145,57.913 160.102,57.922 160.580 M179.985 183.160 C 180.431 183.388,181.808 183.743,183.046 183.950 C 188.732 184.899,189.853 186.320,188.493 190.848 C 188.170 191.920,187.824 193.283,187.722 193.875 C 187.523 195.040,186.758 195.895,185.221 196.672 C 184.685 196.943,184.246 197.356,184.246 197.589 C 184.246 198.183,184.017 198.279,181.732 198.644 L 179.716 198.966 178.305 197.855 C 176.253 196.239,175.616 195.400,175.235 193.813 C 175.049 193.034,174.637 192.163,174.320 191.876 C 173.660 191.279,173.571 190.656,174.119 190.472 C 174.410 190.374,174.396 190.162,174.054 189.522 C 173.627 188.720,173.649 188.669,174.841 187.679 C 175.516 187.119,176.659 185.780,177.381 184.705 C 178.820 182.561,178.817 182.563,179.985 183.160 " stroke="none" fill="#fbfbfb" fill-rule="evenodd"></path><path id="path2" d="M307.023 144.799 C 302.306 149.814,299.797 153.288,293.068 164.124 C 290.870 167.664,288.925 170.608,288.747 170.668 C 288.297 170.818,287.880 168.470,287.323 162.641 C 286.555 154.610,285.276 150.808,282.487 148.270 C 281.763 147.611,281.170 146.804,281.170 146.477 C 281.170 145.586,279.792 144.123,278.574 143.721 C 277.510 143.370,277.478 143.384,275.973 144.890 C 274.092 146.770,273.977 147.687,274.694 155.120 C 274.955 157.833,275.169 161.753,275.169 163.832 C 275.169 166.328,275.326 168.168,275.632 169.252 C 275.886 170.154,276.218 172.041,276.370 173.443 C 276.896 178.321,278.817 186.629,279.693 187.814 C 280.047 188.293,280.409 189.328,280.498 190.114 C 280.695 191.860,283.494 194.831,285.446 195.364 C 288.748 196.267,292.046 193.266,292.465 188.976 C 292.610 187.499,292.826 186.904,293.474 186.197 C 295.040 184.487,296.191 182.629,296.639 181.089 C 296.909 180.159,297.457 179.196,298.014 178.669 C 298.523 178.188,299.376 176.917,299.909 175.844 C 302.083 171.466,304.834 167.506,311.167 159.640 C 313.360 156.917,315.220 154.454,315.300 154.167 C 315.498 153.464,315.979 153.806,315.979 154.650 C 315.979 156.128,317.248 160.155,318.103 161.391 C 319.162 162.921,319.216 162.638,316.862 167.928 C 315.898 170.093,315.022 172.213,314.916 172.638 C 314.809 173.064,314.397 173.625,314.000 173.885 C 313.566 174.169,313.278 174.648,313.278 175.085 C 313.278 175.485,312.928 176.461,312.499 177.253 C 311.336 179.403,312.214 188.406,313.764 190.235 C 317.715 194.894,322.621 195.919,332.487 194.145 C 333.396 193.982,334.882 193.863,335.787 193.881 C 337.457 193.914,343.690 192.728,346.437 191.855 C 349.327 190.936,352.009 188.781,353.095 186.505 C 353.622 185.400,352.606 182.446,351.699 182.446 C 351.456 182.446,350.550 181.748,349.686 180.894 L 348.115 179.343 345.926 179.744 C 344.721 179.965,342.753 180.460,341.551 180.845 C 340.349 181.230,338.717 181.545,337.924 181.545 C 337.131 181.545,335.143 181.747,333.507 181.994 C 330.252 182.484,323.481 182.607,323.481 182.175 C 323.481 181.628,325.165 178.035,326.258 176.251 L 327.384 174.412 333.351 174.385 C 339.673 174.357,340.609 174.202,343.586 172.685 C 349.267 169.790,350.772 167.297,347.787 165.725 C 346.209 164.894,344.244 163.083,343.863 162.109 C 343.666 161.605,343.417 161.463,342.916 161.565 C 341.024 161.950,330.930 162.408,330.644 162.122 C 329.688 161.166,329.974 159.394,331.171 158.859 C 332.405 158.307,336.357 157.487,336.715 157.709 C 336.832 157.781,337.757 157.448,338.770 156.969 C 340.720 156.047,342.170 155.638,347.889 154.394 C 355.971 152.636,360.005 147.787,355.501 145.245 C 354.628 144.753,353.522 143.941,353.045 143.442 C 352.179 142.539,351.284 142.276,350.945 142.824 C 350.833 143.005,350.488 142.986,350.020 142.773 C 348.881 142.254,335.260 144.486,330.083 146.041 C 328.680 146.462,326.789 146.997,325.881 147.229 C 321.646 148.314,319.611 148.991,318.192 149.789 L 316.653 150.653 316.470 149.970 C 316.370 149.595,316.285 148.980,316.283 148.605 C 316.273 146.874,314.440 143.436,313.527 143.436 C 313.050 143.436,312.174 143.233,311.582 142.986 C 309.715 142.206,309.311 142.367,307.023 144.799 M257.234 144.070 C 254.996 145.178,253.068 147.146,252.885 148.508 C 252.797 149.162,252.374 150.441,251.944 151.349 C 251.513 152.262,251.163 153.532,251.163 154.188 C 251.163 155.007,251.012 155.433,250.675 155.562 C 250.280 155.713,250.222 156.022,250.371 157.169 C 250.560 158.619,250.379 159.482,248.156 167.742 C 247.386 170.604,247.202 171.936,247.078 175.544 C 246.996 177.937,246.787 180.455,246.614 181.140 C 246.266 182.522,247.443 187.289,249.344 192.198 C 250.728 195.770,251.002 196.040,253.205 196.009 C 258.464 195.935,260.010 193.902,259.298 187.997 C 258.914 184.813,258.816 178.381,259.124 176.513 C 260.107 170.551,261.011 166.980,263.121 160.725 L 264.324 157.158 263.720 156.340 C 263.274 155.738,263.070 154.863,262.944 153.026 C 262.803 150.971,262.655 150.419,262.110 149.908 C 261.473 149.312,260.743 147.586,260.323 145.686 C 259.829 143.451,259.176 143.109,257.234 144.070 M208.587 144.561 C 208.170 144.907,207.742 145.956,207.332 147.637 C 206.435 151.309,202.412 163.479,199.968 169.912 C 199.546 171.024,199.166 172.377,199.123 172.920 C 199.079 173.462,198.887 174.200,198.695 174.559 C 197.693 176.431,196.787 181.666,196.915 184.838 C 197.052 188.220,197.126 188.441,199.764 193.328 C 202.108 197.672,206.915 198.262,216.354 195.365 C 220.719 194.025,226.965 193.280,230.219 193.710 C 235.177 194.365,239.726 193.217,239.749 191.305 C 239.799 187.175,238.697 185.325,235.460 184.102 C 234.442 183.717,232.925 183.046,232.091 182.611 C 229.361 181.189,219.102 181.476,214.554 183.102 C 213.242 183.570,212.106 183.769,211.086 183.709 L 209.570 183.619 209.808 181.394 C 209.965 179.924,210.566 177.763,211.576 175.031 C 212.417 172.755,213.282 170.127,213.496 169.191 C 213.711 168.256,214.255 166.713,214.704 165.763 C 215.153 164.814,215.760 163.216,216.052 162.213 C 216.344 161.211,217.140 158.947,217.819 157.184 C 218.499 155.420,219.055 153.782,219.055 153.544 C 219.055 153.306,219.257 152.944,219.505 152.738 C 220.796 151.667,218.625 146.659,216.704 146.276 C 216.264 146.189,214.460 145.649,212.694 145.076 C 208.923 143.854,209.370 143.910,208.587 144.561 M170.031 144.960 C 165.466 145.452,158.689 147.404,150.707 150.528 C 148.022 151.578,145.728 152.438,145.609 152.438 C 145.017 152.438,140.996 154.665,139.912 155.592 C 137.782 157.416,136.930 159.640,137.096 162.941 C 137.117 163.353,137.131 164.204,137.126 164.832 C 137.102 168.064,140.937 170.418,147.234 171.036 C 149.023 171.212,151.196 171.497,152.061 171.670 C 152.926 171.843,153.878 171.907,154.175 171.813 C 154.632 171.668,158.260 172.862,161.946 174.370 C 167.544 176.659,154.077 186.124,144.186 186.850 C 140.852 187.095,140.735 187.233,140.735 190.894 C 140.735 192.788,140.850 193.848,141.055 193.848 C 141.241 193.848,141.294 194.105,141.182 194.460 C 140.952 195.185,142.599 197.949,143.384 198.156 C 144.349 198.411,147.436 198.330,148.656 198.018 C 149.333 197.845,150.185 197.712,150.549 197.722 C 153.995 197.818,164.155 191.964,167.989 187.675 C 171.800 183.410,173.131 177.042,170.893 173.784 C 170.398 173.063,169.697 171.989,169.336 171.397 C 168.976 170.804,168.418 170.223,168.097 170.104 C 167.708 169.960,167.393 169.388,167.154 168.391 C 166.703 166.511,165.101 164.567,163.762 164.275 C 163.228 164.159,162.424 163.756,161.976 163.380 C 161.527 163.004,160.268 162.399,159.178 162.037 C 157.791 161.575,157.124 161.184,156.953 160.734 C 156.616 159.842,156.735 159.738,158.361 159.499 C 159.147 159.383,160.195 159.116,160.690 158.906 C 161.185 158.696,162.401 158.355,163.391 158.148 C 164.381 157.941,165.834 157.625,166.618 157.446 C 167.699 157.199,168.297 157.211,169.080 157.494 C 169.877 157.782,171.044 157.798,174.148 157.564 C 176.700 157.372,178.811 157.363,179.897 157.540 C 183.511 158.128,186.378 155.158,184.437 152.836 C 184.047 152.370,183.453 151.448,183.118 150.788 C 182.533 149.636,180.660 146.669,180.055 145.935 C 179.376 145.111,173.729 144.562,170.031 144.960 M127.280 146.062 C 127.130 146.350,126.638 147.869,126.188 149.437 C 125.738 151.005,125.101 152.756,124.772 153.327 C 124.362 154.042,123.913 156.153,123.335 160.079 C 121.850 170.177,120.247 174.585,116.729 178.236 C 114.092 180.974,113.851 181.013,113.476 178.764 C 112.905 175.352,112.909 165.122,113.482 164.674 C 113.750 164.463,114.049 163.751,114.146 163.091 C 114.243 162.431,114.409 161.317,114.515 160.615 C 114.620 159.914,114.842 159.340,115.007 159.340 C 115.184 159.340,115.242 158.852,115.149 158.154 C 115.059 157.481,115.120 156.925,115.291 156.868 C 116.370 156.509,113.633 151.989,111.187 150.091 C 109.307 148.631,104.464 146.273,104.108 146.644 C 103.980 146.778,102.798 149.317,101.483 152.288 C 100.167 155.259,97.712 160.660,96.027 164.291 C 86.925 183.909,86.651 184.566,87.003 185.887 C 87.181 186.552,87.298 187.379,87.264 187.723 C 87.076 189.618,91.782 197.287,93.594 198.037 C 94.627 198.465,96.624 197.989,96.624 197.314 C 96.624 197.099,97.022 196.845,97.508 196.747 C 98.715 196.506,99.493 194.816,100.224 190.848 C 100.361 190.105,100.856 188.858,101.324 188.076 C 101.793 187.295,102.648 185.742,103.226 184.625 C 104.560 182.047,104.724 182.073,106.240 185.100 C 106.929 186.478,108.102 188.368,108.845 189.301 C 114.730 196.684,118.970 198.063,123.334 194.014 C 124.079 193.323,124.891 192.632,125.139 192.478 C 125.387 192.324,125.726 191.793,125.893 191.298 C 126.060 190.803,126.392 190.398,126.632 190.398 C 126.872 190.398,127.584 189.455,128.214 188.302 C 128.844 187.150,129.631 185.917,129.964 185.563 C 130.297 185.209,131.017 183.451,131.564 181.657 C 132.112 179.863,132.711 178.014,132.897 177.550 C 133.082 177.085,133.238 175.667,133.244 174.399 C 133.250 173.131,133.454 171.013,133.698 169.692 C 133.942 168.372,134.364 165.941,134.635 164.291 C 134.977 162.209,135.315 161.082,135.738 160.610 C 136.909 159.305,138.025 155.156,137.534 153.938 C 136.710 151.898,135.070 149.761,133.977 149.304 C 133.396 149.061,132.147 148.270,131.201 147.546 C 128.430 145.422,127.747 145.164,127.280 146.062 M50.104 148.309 C 49.920 149.012,49.624 150.090,49.446 150.704 C 49.174 151.642,49.226 152.091,49.768 153.506 C 50.633 155.767,50.623 156.868,49.737 156.993 C 48.792 157.128,48.712 158.702,49.486 161.995 C 50.679 167.076,50.944 174.645,49.971 175.844 C 49.771 176.092,49.432 177.307,49.219 178.545 C 49.006 179.782,48.641 181.335,48.407 181.995 C 48.174 182.656,47.853 183.803,47.693 184.546 C 47.534 185.289,47.181 186.405,46.910 187.026 C 44.993 191.413,49.161 200.281,52.809 199.577 C 53.428 199.458,68.826 192.572,70.668 191.591 C 87.341 182.711,90.498 173.125,80.224 162.566 C 76.791 159.037,68.507 153.312,65.830 152.617 C 64.860 152.365,62.513 151.531,60.615 150.763 C 50.466 146.656,50.531 146.671,50.104 148.309 M63.166 161.833 C 65.311 162.577,67.674 163.522,68.417 163.932 C 69.160 164.343,70.061 164.766,70.419 164.873 C 71.457 165.182,77.419 171.106,77.419 171.828 C 77.419 173.659,73.978 176.783,69.580 178.946 C 67.676 179.882,65.814 180.972,65.442 181.368 C 65.070 181.764,64.305 182.175,63.741 182.280 C 63.178 182.386,62.008 182.803,61.141 183.206 C 59.089 184.162,58.392 184.177,58.622 183.260 C 59.955 177.946,59.493 166.288,57.729 160.729 C 57.487 159.966,58.209 160.112,63.166 161.833 M177.800 184.460 C 177.308 185.250,176.240 186.538,175.427 187.323 C 174.046 188.654,173.972 188.801,174.305 189.532 C 174.566 190.105,174.573 190.422,174.330 190.714 C 174.082 191.013,174.150 191.323,174.603 191.955 C 174.935 192.419,175.365 193.406,175.557 194.149 C 175.937 195.616,178.364 198.198,179.688 198.543 C 180.758 198.822,183.903 198.059,184.088 197.475 C 184.174 197.202,184.684 196.728,185.221 196.421 C 186.812 195.510,187.547 194.697,187.547 193.849 C 187.547 193.411,187.875 192.089,188.276 190.909 C 189.724 186.653,188.743 185.307,183.346 184.145 C 181.448 183.736,179.625 183.317,179.295 183.213 C 178.814 183.061,178.517 183.308,177.800 184.460 " stroke="none" fill="#4d94fc" fill-rule="evenodd"></path><path id="path3" d="M206.894 33.071 C 206.813 33.284,206.782 40.615,206.826 49.362 L 206.907 65.266 206.979 49.137 L 207.052 33.008 209.300 33.008 L 211.548 33.008 211.629 48.987 L 211.711 64.966 211.707 48.912 L 211.703 32.858 209.373 32.770 C 207.679 32.707,207.002 32.789,206.894 33.071 M219.280 32.928 C 219.981 32.991,221.129 32.991,221.830 32.928 C 222.532 32.865,221.958 32.813,220.555 32.813 C 219.152 32.813,218.578 32.865,219.280 32.928 M155.799 40.717 C 155.766 44.050,155.840 46.839,155.964 46.916 C 156.088 46.993,156.154 45.212,156.111 42.958 C 155.968 35.395,155.859 34.614,155.799 40.717 M150.777 50.113 C 150.777 58.447,150.815 61.857,150.862 57.689 C 150.910 53.522,150.910 46.703,150.862 42.536 C 150.815 38.368,150.777 41.778,150.777 50.113 M191.527 44.326 C 191.983 44.395,192.658 44.393,193.027 44.322 C 193.396 44.251,193.023 44.195,192.198 44.197 C 191.373 44.199,191.071 44.257,191.527 44.326 M238.639 44.326 C 239.095 44.395,239.770 44.393,240.139 44.322 C 240.508 44.251,240.135 44.195,239.310 44.197 C 238.485 44.199,238.183 44.257,238.639 44.326 M247.262 47.562 C 247.822 48.140,248.347 48.612,248.430 48.612 C 248.512 48.612,248.122 48.140,247.562 47.562 C 247.002 46.984,246.476 46.512,246.394 46.512 C 246.311 46.512,246.702 46.984,247.262 47.562 M187.678 49.287 L 186.797 50.263 187.772 49.381 C 188.308 48.896,188.747 48.458,188.747 48.406 C 188.747 48.174,188.500 48.378,187.678 49.287 M155.873 51.995 C 155.793 52.206,155.766 55.278,155.814 58.822 L 155.902 65.266 155.970 58.595 L 156.039 51.924 163.166 51.838 L 170.293 51.752 163.156 51.682 C 157.599 51.628,155.988 51.698,155.873 51.995 M186.123 52.513 C 186.226 52.891,187.104 52.965,191.623 52.974 L 196.999 52.986 191.761 52.892 C 188.061 52.826,186.446 52.691,186.262 52.431 C 186.073 52.165,186.035 52.188,186.123 52.513 M228.139 54.914 C 228.139 55.656,228.197 55.960,228.269 55.589 C 228.340 55.218,228.340 54.610,228.269 54.239 C 228.197 53.867,228.139 54.171,228.139 54.914 M201.685 55.584 L 201.650 56.404 193.923 56.489 L 186.197 56.575 193.933 56.644 C 202.154 56.719,202.224 56.707,201.861 55.306 C 201.768 54.949,201.708 55.044,201.685 55.584 M191.073 65.633 C 191.609 65.700,192.487 65.700,193.023 65.633 C 193.560 65.567,193.121 65.512,192.048 65.512 C 190.975 65.512,190.536 65.567,191.073 65.633 M238.185 65.633 C 238.721 65.700,239.599 65.700,240.135 65.633 C 240.671 65.567,240.233 65.512,239.160 65.512 C 238.087 65.512,237.648 65.567,238.185 65.633 M157.614 76.426 C 157.903 76.501,158.376 76.501,158.665 76.426 C 158.953 76.350,158.717 76.289,158.140 76.289 C 157.562 76.289,157.326 76.350,157.614 76.426 M197.378 76.431 C 197.751 76.503,198.291 76.500,198.578 76.425 C 198.865 76.350,198.560 76.291,197.899 76.295 C 197.239 76.298,197.005 76.360,197.378 76.431 M216.429 76.426 C 216.718 76.501,217.191 76.501,217.479 76.426 C 217.768 76.350,217.532 76.289,216.954 76.289 C 216.377 76.289,216.140 76.350,216.429 76.426 M228.132 76.426 C 228.421 76.501,228.893 76.501,229.182 76.426 C 229.471 76.350,229.235 76.289,228.657 76.289 C 228.080 76.289,227.843 76.350,228.132 76.426 M146.569 76.907 C 146.487 77.120,146.462 79.382,146.512 81.933 L 146.603 86.572 146.670 81.716 C 146.736 76.944,146.748 76.859,147.412 76.731 L 148.087 76.601 147.402 76.560 C 147.026 76.538,146.651 76.694,146.569 76.907 M164.141 76.635 C 164.141 76.699,164.539 76.809,165.025 76.881 C 165.512 76.952,165.841 76.900,165.758 76.765 C 165.609 76.524,164.141 76.406,164.141 76.635 M171.943 76.635 C 171.943 76.699,172.348 76.811,172.843 76.883 C 173.338 76.956,173.743 76.904,173.743 76.767 C 173.743 76.631,173.338 76.519,172.843 76.519 C 172.348 76.519,171.943 76.571,171.943 76.635 M182.371 76.716 C 182.779 76.804,183.046 77.083,183.046 77.423 C 183.046 78.112,183.526 78.456,183.822 77.978 C 183.952 77.767,183.909 77.707,183.714 77.828 C 183.524 77.945,183.349 77.745,183.292 77.349 C 183.224 76.867,182.978 76.655,182.446 76.620 C 181.785 76.577,181.776 76.588,182.371 76.716 M205.364 76.959 C 205.271 77.201,205.264 77.573,205.349 77.785 C 205.434 77.996,205.515 77.850,205.528 77.459 C 205.546 76.901,205.680 76.783,206.152 76.906 C 206.482 76.992,206.752 76.941,206.752 76.791 C 206.752 76.340,205.545 76.486,205.364 76.959 M242.528 81.695 L 242.595 86.872 242.685 81.865 C 242.773 76.961,242.789 76.856,243.443 76.730 C 244.007 76.621,243.983 76.594,243.286 76.560 L 242.461 76.519 242.528 81.695 M181.967 82.071 C 181.967 84.711,182.013 85.751,182.069 84.382 C 182.125 83.012,182.124 80.852,182.068 79.581 C 182.012 78.309,181.967 79.430,181.967 82.071 M154.952 83.421 C 154.952 85.319,155.001 86.095,155.060 85.146 C 155.120 84.197,155.120 82.644,155.060 81.695 C 155.001 80.746,154.952 81.523,154.952 83.421 M219.168 83.421 C 219.168 85.319,219.217 86.095,219.277 85.146 C 219.336 84.197,219.336 82.644,219.277 81.695 C 219.217 80.746,219.168 81.523,219.168 83.421 M225.133 80.420 C 225.232 80.784,225.884 80.874,228.532 80.887 L 231.808 80.905 228.668 80.801 C 226.658 80.735,225.435 80.567,225.269 80.334 C 225.084 80.074,225.046 80.099,225.133 80.420 M198.129 80.635 C 198.585 80.704,199.260 80.703,199.629 80.631 C 199.998 80.560,199.625 80.504,198.800 80.506 C 197.974 80.508,197.673 80.566,198.129 80.635 M160.351 83.721 C 160.351 85.454,160.401 86.163,160.461 85.296 C 160.522 84.430,160.522 83.012,160.461 82.146 C 160.401 81.279,160.351 81.988,160.351 83.721 M202.059 83.421 C 202.059 84.989,202.109 85.630,202.171 84.846 C 202.233 84.062,202.233 82.779,202.171 81.995 C 202.109 81.212,202.059 81.853,202.059 83.421 M148.047 83.871 C 148.047 85.521,148.098 86.158,148.159 85.286 C 148.219 84.414,148.219 83.064,148.157 82.286 C 148.096 81.507,148.046 82.221,148.047 83.871 M206.858 84.171 C 206.857 85.656,206.908 86.302,206.971 85.605 C 207.034 84.909,207.035 83.694,206.973 82.905 C 206.911 82.116,206.859 82.686,206.858 84.171 M232.393 84.565 C 232.522 84.791,232.385 85.239,232.074 85.615 C 231.542 86.257,231.546 86.257,232.258 85.600 C 232.864 85.039,232.917 84.865,232.577 84.549 C 232.248 84.244,232.213 84.247,232.393 84.565 M164.141 90.571 C 164.141 90.707,164.546 90.759,165.041 90.687 C 165.536 90.614,165.941 90.502,165.941 90.439 C 165.941 90.375,165.536 90.323,165.041 90.323 C 164.546 90.323,164.141 90.434,164.141 90.571 M105.276 101.350 C 157.484 101.392,242.825 101.392,294.923 101.350 C 347.022 101.309,304.306 101.274,200.000 101.274 C 95.694 101.274,53.068 101.309,105.276 101.350 M311.628 142.975 C 312.123 143.214,313.001 143.398,313.578 143.385 L 314.629 143.361 313.428 143.153 C 312.768 143.039,311.890 142.855,311.478 142.743 C 310.877 142.582,310.907 142.628,311.628 142.975 M275.605 145.011 L 274.419 146.287 275.694 145.100 C 276.880 143.997,277.107 143.736,276.880 143.736 C 276.831 143.736,276.257 144.310,275.605 145.011 M315.000 144.939 C 315.260 145.601,315.527 146.089,315.593 146.022 C 315.738 145.878,314.871 143.736,314.668 143.736 C 314.590 143.736,314.740 144.278,315.000 144.939 M280.359 144.884 C 280.805 145.433,281.170 146.116,281.170 146.402 C 281.170 146.688,281.364 147.184,281.601 147.505 C 281.959 147.989,281.954 147.851,281.574 146.689 C 281.323 145.920,280.764 144.975,280.333 144.588 L 279.549 143.886 280.359 144.884 M170.818 144.843 C 171.107 144.918,171.579 144.918,171.868 144.843 C 172.157 144.768,171.920 144.706,171.343 144.706 C 170.765 144.706,170.529 144.768,170.818 144.843 M174.572 144.848 C 174.945 144.920,175.486 144.917,175.772 144.842 C 176.059 144.767,175.754 144.709,175.094 144.712 C 174.434 144.715,174.199 144.777,174.572 144.848 M127.107 145.729 C 126.844 146.414,126.992 146.431,127.607 145.786 C 128.007 145.367,128.032 145.236,127.714 145.236 C 127.484 145.236,127.211 145.458,127.107 145.729 M165.341 145.536 C 164.738 145.730,164.709 145.778,165.191 145.785 C 165.521 145.790,166.062 145.678,166.392 145.536 C 167.156 145.208,166.367 145.208,165.341 145.536 M253.599 146.550 C 252.838 147.335,252.645 147.758,252.745 148.426 L 252.873 149.287 252.918 148.401 C 252.946 147.854,253.330 147.137,253.922 146.526 C 254.450 145.982,254.814 145.536,254.731 145.536 C 254.649 145.536,254.139 145.993,253.599 146.550 M260.470 146.312 C 260.472 146.628,260.611 147.089,260.779 147.337 C 261.001 147.666,261.029 147.544,260.882 146.887 C 260.635 145.783,260.464 145.544,260.470 146.312 M129.632 146.231 C 129.632 146.305,130.128 146.743,130.734 147.206 C 131.340 147.668,131.741 147.893,131.625 147.705 C 131.388 147.321,129.632 146.022,129.632 146.231 M303.773 148.162 C 302.087 150.151,301.161 151.383,301.911 150.638 C 302.756 149.798,305.537 146.437,305.386 146.437 C 305.303 146.437,304.578 147.213,303.773 148.162 M326.482 146.887 C 325.904 147.109,325.634 147.295,325.881 147.300 C 326.129 147.306,326.737 147.124,327.232 146.898 C 328.391 146.367,327.852 146.359,326.482 146.887 M316.191 148.253 C 316.285 148.987,316.411 149.644,316.470 149.712 C 316.715 149.994,316.549 147.753,316.295 147.352 C 316.117 147.071,316.080 147.389,316.191 148.253 M50.007 147.564 C 49.930 147.689,49.787 148.331,49.689 148.990 C 49.489 150.337,49.634 150.137,50.071 148.462 C 50.348 147.400,50.323 147.053,50.007 147.564 M181.545 148.237 C 181.898 148.732,182.254 149.137,182.336 149.137 C 182.419 149.137,182.198 148.732,181.845 148.237 C 181.493 147.742,181.137 147.337,181.054 147.337 C 180.972 147.337,181.193 147.742,181.545 148.237 M126.203 148.409 C 126.093 148.848,126.060 149.266,126.131 149.337 C 126.202 149.407,126.350 149.106,126.460 148.666 C 126.571 148.226,126.603 147.808,126.532 147.738 C 126.462 147.667,126.313 147.969,126.203 148.409 M274.050 149.137 C 274.050 149.880,274.109 150.184,274.180 149.812 C 274.252 149.441,274.252 148.833,274.180 148.462 C 274.109 148.091,274.050 148.395,274.050 149.137 M321.230 148.237 C 320.852 148.400,320.797 148.495,321.080 148.495 C 321.328 148.495,321.800 148.379,322.131 148.237 C 322.509 148.075,322.564 147.979,322.281 147.979 C 322.033 147.979,321.560 148.095,321.230 148.237 M219.246 148.987 C 219.940 150.172,219.955 150.190,219.955 149.821 C 219.955 149.646,219.677 149.185,219.337 148.795 L 218.719 148.087 219.246 148.987 M57.614 149.587 C 58.027 149.823,58.500 150.016,58.665 150.016 C 58.830 150.016,58.627 149.823,58.215 149.587 C 57.802 149.352,57.329 149.159,57.164 149.159 C 56.999 149.159,57.202 149.352,57.614 149.587 M110.278 149.330 C 111.805 150.686,112.368 151.081,111.779 150.385 C 111.452 149.998,110.913 149.543,110.581 149.373 C 110.249 149.203,110.113 149.184,110.278 149.330 M318.005 149.609 C 316.883 150.218,316.951 150.471,318.080 149.887 C 318.575 149.631,318.980 149.358,318.980 149.280 C 318.980 149.087,318.948 149.097,318.005 149.609 M182.954 150.484 C 183.229 151.059,183.507 151.477,183.572 151.412 C 183.709 151.275,182.798 149.437,182.593 149.437 C 182.517 149.437,182.680 149.908,182.954 150.484 M64.066 152.138 C 64.396 152.280,64.869 152.396,65.116 152.396 C 65.400 152.396,65.345 152.301,64.966 152.138 C 64.636 151.996,64.164 151.880,63.916 151.880 C 63.632 151.880,63.688 151.975,64.066 152.138 M262.941 153.188 C 262.945 153.848,263.006 154.083,263.078 153.710 C 263.150 153.337,263.147 152.797,263.072 152.510 C 262.997 152.223,262.938 152.528,262.941 153.188 M49.684 153.938 C 49.795 154.351,50.010 154.891,50.163 155.139 C 50.356 155.452,50.380 155.360,50.241 154.839 C 50.130 154.426,49.915 153.886,49.762 153.638 C 49.569 153.326,49.545 153.417,49.684 153.938 M315.379 153.972 C 315.379 154.175,315.143 154.613,314.854 154.945 C 314.329 155.547,314.330 155.547,315.144 154.968 C 316.026 154.342,316.146 154.077,315.679 153.788 C 315.514 153.686,315.379 153.769,315.379 153.972 M348.087 154.389 C 347.344 154.604,347.007 154.783,347.337 154.786 C 347.667 154.790,348.477 154.615,349.137 154.397 C 350.691 153.885,349.849 153.878,348.087 154.389 M263.192 155.031 C 263.177 155.384,263.402 155.930,263.691 156.245 C 263.980 156.560,264.105 156.651,263.970 156.447 C 263.835 156.244,263.610 155.697,263.471 155.233 C 263.265 154.548,263.213 154.510,263.192 155.031 M274.638 156.039 C 274.638 156.617,274.700 156.853,274.775 156.564 C 274.851 156.275,274.851 155.803,274.775 155.514 C 274.700 155.225,274.638 155.461,274.638 156.039 M286.323 155.439 C 286.338 156.219,286.810 157.499,286.821 156.789 C 286.826 156.459,286.713 155.919,286.572 155.589 C 286.414 155.221,286.317 155.163,286.323 155.439 M123.701 156.339 C 123.701 156.917,123.762 157.153,123.838 156.864 C 123.913 156.575,123.913 156.103,123.838 155.814 C 123.762 155.525,123.701 155.761,123.701 156.339 M250.078 155.871 C 249.986 156.109,249.965 156.548,250.029 156.847 C 250.103 157.186,250.205 157.023,250.303 156.414 C 250.466 155.392,250.360 155.136,250.078 155.871 M73.218 156.748 C 73.218 156.831,73.623 157.187,74.119 157.539 C 74.614 157.892,75.019 158.113,75.019 158.030 C 75.019 157.948,74.614 157.592,74.119 157.239 C 73.623 156.887,73.218 156.666,73.218 156.748 M167.067 157.451 C 167.438 157.523,168.046 157.523,168.417 157.451 C 168.788 157.380,168.485 157.321,167.742 157.321 C 166.999 157.321,166.695 157.380,167.067 157.451 M177.273 157.452 C 177.646 157.523,178.186 157.521,178.473 157.445 C 178.760 157.370,178.455 157.312,177.794 157.315 C 177.134 157.318,176.900 157.380,177.273 157.452 M316.321 157.539 C 316.321 157.787,316.437 158.260,316.579 158.590 C 316.742 158.968,316.837 159.023,316.837 158.740 C 316.837 158.492,316.721 158.020,316.579 157.689 C 316.417 157.311,316.321 157.256,316.321 157.539 M172.618 157.746 C 172.907 157.822,173.380 157.822,173.668 157.746 C 173.957 157.671,173.721 157.609,173.143 157.609 C 172.566 157.609,172.329 157.671,172.618 157.746 M333.383 158.059 C 332.806 158.127,332.225 158.287,332.093 158.416 C 331.962 158.544,332.469 158.556,333.222 158.441 C 333.974 158.327,334.678 158.145,334.787 158.037 C 334.895 157.928,334.860 157.861,334.709 157.887 C 334.557 157.914,333.961 157.991,333.383 158.059 M296.288 158.515 C 295.256 160.267,295.188 160.417,295.714 159.790 C 296.324 159.064,296.849 158.140,296.652 158.140 C 296.574 158.140,296.410 158.308,296.288 158.515 M161.029 158.677 C 160.948 158.808,161.345 158.860,161.912 158.794 C 162.478 158.728,162.941 158.621,162.941 158.557 C 162.941 158.331,161.174 158.442,161.029 158.677 M115.004 159.207 C 114.797 159.431,114.647 159.992,114.670 160.452 C 114.709 161.264,114.715 161.267,114.848 160.540 C 114.924 160.128,115.128 159.618,115.300 159.408 C 115.733 158.881,115.468 158.703,115.004 159.207 M274.989 163.241 C 274.989 165.799,275.036 166.845,275.092 165.566 C 275.148 164.287,275.148 162.194,275.092 160.915 C 275.036 159.636,274.989 160.683,274.989 163.241 M157.839 159.556 C 157.427 159.630,156.972 159.804,156.828 159.942 C 156.599 160.161,158.681 159.819,159.490 159.504 C 159.884 159.351,158.794 159.385,157.839 159.556 M263.199 160.273 C 263.014 160.804,262.916 161.290,262.980 161.354 C 263.044 161.418,263.248 161.037,263.433 160.507 C 263.617 159.976,263.716 159.490,263.652 159.426 C 263.588 159.362,263.384 159.743,263.199 160.273 M97.573 160.403 C 97.070 161.506,97.166 161.742,97.710 160.739 C 97.964 160.270,98.115 159.831,98.047 159.762 C 97.978 159.694,97.765 159.982,97.573 160.403 M135.394 160.900 C 135.196 161.098,135.052 161.605,135.075 162.026 L 135.115 162.791 135.253 162.041 C 135.329 161.628,135.530 161.122,135.699 160.915 C 136.092 160.437,135.868 160.426,135.394 160.900 M202.584 161.774 C 202.399 162.304,202.300 162.790,202.365 162.855 C 202.429 162.919,202.633 162.537,202.817 162.007 C 203.002 161.477,203.101 160.990,203.037 160.926 C 202.973 160.862,202.769 161.243,202.584 161.774 M317.828 161.402 C 318.866 163.240,318.971 163.383,318.965 162.941 C 318.961 162.693,318.613 162.086,318.192 161.590 C 317.632 160.932,317.534 160.882,317.828 161.402 M330.459 161.740 C 330.551 162.082,331.080 162.197,332.657 162.215 L 334.734 162.240 332.791 162.124 C 331.722 162.061,330.733 161.847,330.593 161.649 C 330.413 161.397,330.373 161.424,330.459 161.740 M341.414 161.653 C 341.787 161.724,342.327 161.722,342.614 161.647 C 342.901 161.571,342.596 161.513,341.935 161.516 C 341.275 161.519,341.041 161.581,341.414 161.653 M343.789 161.965 C 344.030 162.653,345.601 164.331,346.737 165.114 C 347.232 165.455,346.860 165.027,345.911 164.163 C 344.955 163.293,344.186 162.336,344.186 162.017 C 344.186 161.700,344.055 161.440,343.895 161.440 C 343.736 161.440,343.688 161.677,343.789 161.965 M336.913 161.953 C 337.286 162.024,337.826 162.022,338.113 161.947 C 338.400 161.872,338.095 161.813,337.434 161.816 C 336.774 161.819,336.539 161.881,336.913 161.953 M63.616 162.327 C 63.863 162.494,64.325 162.634,64.641 162.636 C 65.409 162.642,65.169 162.470,64.066 162.224 C 63.409 162.077,63.287 162.104,63.616 162.327 M80.870 163.241 C 81.515 163.901,82.110 164.441,82.192 164.441 C 82.275 164.441,81.815 163.901,81.170 163.241 C 80.526 162.581,79.931 162.041,79.848 162.041 C 79.766 162.041,80.226 162.581,80.870 163.241 M161.333 162.918 C 161.851 163.234,162.365 163.638,162.476 163.817 C 162.586 163.995,162.822 164.141,163.000 164.141 C 163.178 164.141,162.814 163.736,162.191 163.241 C 161.568 162.746,160.908 162.341,160.724 162.342 C 160.540 162.342,160.814 162.601,161.333 162.918 M307.996 163.616 C 306.682 165.132,306.292 165.641,306.444 165.641 C 306.532 165.641,307.102 165.034,307.711 164.291 C 308.838 162.916,309.061 162.388,307.996 163.616 M122.311 165.071 C 122.201 165.759,122.169 166.380,122.241 166.452 C 122.312 166.523,122.465 166.024,122.581 165.341 C 122.696 164.659,122.727 164.038,122.650 163.961 C 122.573 163.884,122.421 164.384,122.311 165.071 M215.203 164.604 C 214.700 165.707,214.796 165.943,215.339 164.940 C 215.593 164.471,215.745 164.032,215.676 163.963 C 215.608 163.895,215.394 164.183,215.203 164.604 M287.541 164.741 C 287.541 165.319,287.603 165.555,287.679 165.266 C 287.754 164.977,287.754 164.505,287.679 164.216 C 287.603 163.927,287.541 164.164,287.541 164.741 M49.882 165.041 C 49.882 165.619,49.944 165.855,50.019 165.566 C 50.095 165.278,50.095 164.805,50.019 164.516 C 49.944 164.227,49.882 164.464,49.882 165.041 M165.489 165.342 C 166.912 167.005,166.931 167.023,166.606 166.392 C 166.436 166.062,165.913 165.454,165.444 165.042 L 164.591 164.293 165.489 165.342 M317.828 165.204 C 317.325 166.308,317.421 166.543,317.965 165.540 C 318.219 165.071,318.370 164.632,318.302 164.563 C 318.233 164.495,318.020 164.783,317.828 165.204 M112.943 165.174 C 112.852 165.412,112.830 165.851,112.895 166.149 C 112.968 166.488,113.071 166.325,113.168 165.716 C 113.332 164.695,113.226 164.438,112.943 165.174 M72.226 166.542 C 74.012 168.481,74.230 168.481,72.560 166.542 C 71.849 165.717,71.172 165.041,71.056 165.041 C 70.939 165.041,71.466 165.716,72.226 166.542 M348.387 166.046 C 348.800 166.263,349.201 166.389,349.279 166.325 C 349.490 166.152,348.604 165.651,348.087 165.650 C 347.839 165.650,347.974 165.828,348.387 166.046 M287.848 167.292 C 287.851 167.952,287.912 168.187,287.984 167.813 C 288.056 167.440,288.053 166.900,287.978 166.613 C 287.903 166.326,287.844 166.632,287.848 167.292 M113.233 169.242 C 113.233 170.645,113.285 171.219,113.348 170.518 C 113.411 169.816,113.411 168.668,113.348 167.967 C 113.285 167.266,113.233 167.839,113.233 169.242 M93.972 168.205 C 93.469 169.308,93.565 169.544,94.109 168.541 C 94.363 168.072,94.514 167.633,94.446 167.564 C 94.377 167.495,94.164 167.784,93.972 168.205 M260.615 168.642 C 260.501 169.161,260.471 169.648,260.547 169.724 C 260.623 169.801,260.772 169.432,260.878 168.905 C 260.983 168.378,261.014 167.891,260.946 167.823 C 260.878 167.755,260.729 168.123,260.615 168.642 M316.328 168.505 C 315.825 169.608,315.921 169.844,316.465 168.841 C 316.718 168.372,316.870 167.933,316.801 167.864 C 316.733 167.796,316.520 168.084,316.328 168.505 M133.697 169.406 C 133.582 170.171,133.550 170.859,133.625 170.934 C 133.700 171.009,133.855 170.444,133.970 169.679 C 134.085 168.913,134.117 168.226,134.042 168.151 C 133.967 168.076,133.812 168.641,133.697 169.406 M75.783 169.856 C 76.600 170.771,77.330 171.475,77.405 171.420 C 77.480 171.366,76.811 170.617,75.918 169.757 L 74.296 168.192 75.783 169.856 M303.376 169.842 C 303.023 170.338,302.802 170.743,302.885 170.743 C 302.967 170.743,303.323 170.338,303.676 169.842 C 304.028 169.347,304.249 168.942,304.167 168.942 C 304.084 168.942,303.728 169.347,303.376 169.842 M140.135 169.432 C 140.135 169.635,142.277 170.501,142.421 170.357 C 142.488 170.290,142.001 170.023,141.339 169.763 C 140.677 169.503,140.135 169.354,140.135 169.432 M50.503 171.643 C 50.503 172.551,50.559 172.922,50.628 172.468 C 50.696 172.014,50.696 171.272,50.628 170.818 C 50.559 170.364,50.503 170.735,50.503 171.643 M59.527 173.293 C 59.528 175.109,59.577 175.813,59.637 174.858 C 59.697 173.903,59.696 172.417,59.636 171.557 C 59.575 170.696,59.526 171.478,59.527 173.293 M85.572 171.343 C 85.588 172.123,86.060 173.403,86.071 172.693 C 86.075 172.363,85.963 171.823,85.821 171.493 C 85.663 171.125,85.567 171.067,85.572 171.343 M146.816 171.258 C 147.272 171.327,147.947 171.325,148.316 171.254 C 148.685 171.183,148.312 171.126,147.487 171.129 C 146.662 171.131,146.360 171.189,146.816 171.258 M149.812 171.550 C 150.101 171.625,150.574 171.625,150.863 171.550 C 151.152 171.474,150.915 171.412,150.338 171.412 C 149.760 171.412,149.524 171.474,149.812 171.550 M276.162 172.993 C 276.164 173.983,276.220 174.352,276.286 173.813 C 276.353 173.274,276.352 172.464,276.283 172.013 C 276.215 171.562,276.160 172.003,276.162 172.993 M247.031 172.543 C 247.031 173.121,247.093 173.357,247.169 173.068 C 247.244 172.779,247.244 172.307,247.169 172.018 C 247.093 171.729,247.031 171.965,247.031 172.543 M119.580 173.743 C 119.324 174.239,119.182 174.644,119.264 174.644 C 119.347 174.644,119.624 174.239,119.880 173.743 C 120.136 173.248,120.278 172.843,120.195 172.843 C 120.113 172.843,119.836 173.248,119.580 173.743 M113.231 175.394 C 113.232 176.714,113.285 177.217,113.348 176.511 C 113.412 175.805,113.411 174.725,113.346 174.111 C 113.282 173.496,113.230 174.074,113.231 175.394 M160.240 173.893 C 160.653 174.129,161.125 174.322,161.290 174.322 C 161.455 174.322,161.253 174.129,160.840 173.893 C 160.428 173.658,159.955 173.465,159.790 173.465 C 159.625 173.465,159.827 173.658,160.240 173.893 M74.449 175.589 C 73.393 176.592,72.785 177.273,73.099 177.101 C 73.661 176.794,76.777 173.734,76.508 173.754 C 76.432 173.760,75.505 174.585,74.449 175.589 M86.203 174.944 C 86.203 175.686,86.262 175.990,86.333 175.619 C 86.405 175.248,86.405 174.640,86.333 174.269 C 86.262 173.897,86.203 174.201,86.203 174.944 M329.261 174.559 C 329.718 174.628,330.393 174.626,330.762 174.555 C 331.131 174.484,330.758 174.427,329.932 174.429 C 329.107 174.432,328.805 174.490,329.261 174.559 M333.462 174.559 C 333.919 174.628,334.594 174.626,334.963 174.555 C 335.332 174.484,334.959 174.427,334.134 174.429 C 333.308 174.432,333.006 174.490,333.462 174.559 M336.759 174.550 C 337.048 174.626,337.521 174.626,337.809 174.550 C 338.098 174.475,337.862 174.413,337.284 174.413 C 336.707 174.413,336.470 174.475,336.759 174.550 M246.720 177.344 C 246.684 178.912,246.584 180.533,246.499 180.945 L 246.345 181.695 246.663 180.966 C 246.841 180.560,246.939 178.969,246.885 177.366 L 246.787 174.494 246.720 177.344 M259.334 175.544 C 259.334 176.122,259.396 176.358,259.472 176.069 C 259.547 175.780,259.547 175.308,259.472 175.019 C 259.396 174.730,259.334 174.966,259.334 175.544 M90.071 176.607 C 89.568 177.710,89.664 177.946,90.208 176.943 C 90.462 176.474,90.613 176.035,90.545 175.966 C 90.476 175.898,90.263 176.186,90.071 176.607 M85.807 177.562 C 85.724 178.259,85.771 178.715,85.911 178.575 C 86.051 178.435,86.118 177.865,86.061 177.307 C 85.959 176.319,85.953 176.325,85.807 177.562 M259.034 177.644 C 259.034 178.222,259.096 178.458,259.172 178.170 C 259.247 177.881,259.247 177.408,259.172 177.119 C 259.096 176.830,259.034 177.067,259.034 177.644 M161.724 178.470 L 160.690 179.595 161.815 178.561 C 162.863 177.598,163.079 177.344,162.850 177.344 C 162.799 177.344,162.293 177.851,161.724 178.470 M116.279 178.478 C 115.783 178.927,114.973 179.606,114.478 179.987 C 113.983 180.367,113.852 180.547,114.186 180.387 C 114.809 180.089,117.600 177.672,117.329 177.666 C 117.247 177.664,116.774 178.029,116.279 178.478 M132.366 178.878 C 132.182 179.408,132.083 179.895,132.147 179.959 C 132.211 180.023,132.415 179.642,132.600 179.111 C 132.785 178.581,132.883 178.095,132.819 178.031 C 132.755 177.966,132.551 178.348,132.366 178.878 M172.025 179.145 C 172.025 179.887,172.083 180.191,172.155 179.820 C 172.226 179.449,172.226 178.841,172.155 178.470 C 172.083 178.098,172.025 178.402,172.025 179.145 M210.203 178.845 C 210.089 179.363,210.058 179.850,210.134 179.927 C 210.211 180.003,210.360 179.634,210.465 179.107 C 210.571 178.580,210.601 178.093,210.533 178.025 C 210.465 177.957,210.316 178.326,210.203 178.845 M68.417 179.295 C 68.005 179.531,67.802 179.724,67.967 179.724 C 68.132 179.724,68.605 179.531,69.017 179.295 C 69.430 179.059,69.632 178.866,69.467 178.866 C 69.302 178.866,68.830 179.059,68.417 179.295 M84.460 180.420 C 83.997 181.122,83.811 181.537,84.045 181.343 C 84.496 180.971,85.645 179.145,85.428 179.145 C 85.358 179.145,84.923 179.719,84.460 180.420 M88.571 179.908 C 88.068 181.011,88.164 181.247,88.708 180.244 C 88.962 179.775,89.113 179.336,89.044 179.267 C 88.976 179.198,88.763 179.487,88.571 179.908 M311.564 180.495 C 311.566 181.320,311.624 181.622,311.693 181.166 C 311.762 180.710,311.760 180.035,311.689 179.666 C 311.618 179.297,311.561 179.670,311.564 180.495 M347.487 179.362 C 347.899 179.437,348.575 179.789,348.987 180.146 L 349.737 180.795 349.010 179.970 C 348.538 179.435,348.011 179.159,347.510 179.186 L 346.737 179.227 347.487 179.362 M48.500 180.683 C 48.249 181.933,48.492 182.176,48.762 180.945 C 48.876 180.427,48.907 179.940,48.830 179.863 C 48.754 179.787,48.605 180.155,48.500 180.683 M65.566 180.945 C 65.092 181.440,64.493 181.856,64.235 181.869 C 63.914 181.885,63.887 181.941,64.149 182.047 C 64.360 182.132,65.069 181.716,65.725 181.123 C 66.382 180.530,66.808 180.045,66.674 180.045 C 66.539 180.045,66.041 180.450,65.566 180.945 M296.809 180.396 C 296.790 180.671,296.696 181.144,296.601 181.446 C 296.438 181.967,296.447 181.968,296.772 181.461 C 296.960 181.167,297.054 180.694,296.979 180.411 C 296.857 179.946,296.840 179.945,296.809 180.396 M341.185 180.659 C 340.857 180.881,340.978 180.909,341.635 180.762 C 342.739 180.515,342.978 180.344,342.211 180.350 C 341.894 180.352,341.433 180.491,341.185 180.659 M277.620 181.395 C 277.616 181.725,277.728 182.266,277.869 182.596 C 278.198 183.360,278.198 182.571,277.869 181.545 C 277.676 180.942,277.627 180.913,277.620 181.395 M337.659 181.460 C 338.113 181.529,338.856 181.529,339.310 181.460 C 339.764 181.391,339.392 181.335,338.485 181.335 C 337.577 181.335,337.206 181.391,337.659 181.460 M221.980 181.762 C 222.517 181.829,223.395 181.829,223.931 181.762 C 224.467 181.696,224.029 181.641,222.956 181.641 C 221.883 181.641,221.444 181.696,221.980 181.762 M332.783 181.845 C 331.986 182.013,331.914 182.072,332.483 182.089 C 332.896 182.101,333.773 181.999,334.434 181.863 C 335.434 181.656,335.484 181.615,334.734 181.619 C 334.239 181.622,333.361 181.724,332.783 181.845 M82.652 182.821 L 81.770 183.796 82.746 182.915 C 83.655 182.093,83.859 181.845,83.627 181.845 C 83.575 181.845,83.137 182.284,82.652 182.821 M218.834 182.061 C 219.290 182.130,219.965 182.128,220.334 182.057 C 220.703 181.985,220.330 181.929,219.505 181.931 C 218.680 181.934,218.378 181.992,218.834 182.061 M104.004 183.097 C 103.741 183.472,103.531 183.918,103.538 184.088 C 103.545 184.257,103.751 184.025,103.998 183.571 C 104.463 182.712,104.868 182.527,105.129 183.053 C 105.213 183.222,105.249 183.197,105.210 182.997 C 105.083 182.349,104.494 182.397,104.004 183.097 M155.364 182.917 C 154.242 183.526,154.310 183.779,155.439 183.196 C 155.934 182.940,156.339 182.666,156.339 182.588 C 156.339 182.395,156.307 182.406,155.364 182.917 M196.645 184.246 C 196.645 185.319,196.700 185.758,196.766 185.221 C 196.833 184.685,196.833 183.807,196.766 183.271 C 196.700 182.734,196.645 183.173,196.645 184.246 M179.404 183.208 C 179.960 183.449,180.500 183.641,180.605 183.635 C 180.995 183.613,179.277 182.767,178.845 182.768 C 178.597 182.769,178.849 182.966,179.404 183.208 M293.793 185.822 C 293.061 186.688,292.838 187.059,293.297 186.647 C 294.071 185.952,295.437 184.246,295.219 184.246 C 295.167 184.246,294.525 184.955,293.793 185.822 M238.158 185.335 C 238.514 185.644,238.877 186.167,238.963 186.497 C 239.087 186.968,239.109 186.943,239.065 186.381 C 239.034 185.977,238.683 185.471,238.260 185.219 L 237.509 184.773 238.158 185.335 M102.393 186.284 L 101.710 187.397 102.468 186.555 C 102.885 186.092,103.226 185.585,103.226 185.430 C 103.226 184.988,103.125 185.092,102.393 186.284 M187.883 185.596 C 188.150 185.926,188.443 186.399,188.534 186.647 C 188.675 187.029,188.703 187.024,188.723 186.618 C 188.737 186.355,188.443 185.882,188.072 185.568 C 187.403 185.001,187.401 185.001,187.883 185.596 M278.793 186.558 C 278.780 186.757,279.107 187.418,279.520 188.026 C 279.932 188.634,280.270 188.995,280.270 188.830 C 280.270 188.664,280.020 188.206,279.715 187.812 C 279.409 187.419,279.082 186.894,278.988 186.647 C 278.894 186.398,278.806 186.358,278.793 186.558 M141.157 187.322 C 140.589 187.993,140.589 187.994,141.190 187.489 C 141.565 187.174,142.479 186.939,143.591 186.871 L 145.386 186.760 143.557 186.703 C 141.990 186.655,141.647 186.743,141.157 187.322 M259.334 187.847 C 259.334 188.425,259.396 188.661,259.472 188.372 C 259.547 188.083,259.547 187.611,259.472 187.322 C 259.396 187.033,259.334 187.269,259.334 187.847 M76.669 188.023 L 75.769 188.797 76.744 188.151 C 77.281 187.796,77.719 187.448,77.719 187.376 C 77.719 187.152,77.592 187.230,76.669 188.023 M166.542 189.134 C 165.634 190.000,164.351 191.156,163.691 191.704 C 162.611 192.600,162.596 192.630,163.541 192.000 C 164.589 191.302,168.627 187.570,168.342 187.563 C 168.260 187.561,167.449 188.268,166.542 189.134 M174.104 188.207 C 173.667 188.644,173.637 189.246,174.040 189.495 C 174.211 189.601,174.260 189.479,174.157 189.209 C 174.057 188.951,174.143 188.539,174.347 188.293 C 174.790 187.759,174.614 187.697,174.104 188.207 M140.528 189.797 C 140.530 190.788,140.586 191.157,140.653 190.617 C 140.719 190.078,140.718 189.268,140.650 188.817 C 140.581 188.366,140.526 188.807,140.528 189.797 M351.219 189.122 L 350.338 190.098 351.313 189.216 C 352.222 188.395,352.426 188.147,352.194 188.147 C 352.143 188.147,351.704 188.586,351.219 189.122 M259.655 190.548 C 259.655 191.455,259.711 191.827,259.780 191.373 C 259.849 190.919,259.849 190.176,259.780 189.722 C 259.711 189.269,259.655 189.640,259.655 190.548 M239.724 190.313 C 239.862 191.146,239.905 191.189,239.999 190.588 C 240.061 190.198,239.987 189.755,239.836 189.603 C 239.669 189.437,239.625 189.717,239.724 190.313 M280.294 190.455 C 280.281 191.147,280.377 191.779,280.507 191.859 C 280.638 191.940,280.696 191.509,280.636 190.902 C 280.472 189.241,280.320 189.043,280.294 190.455 M100.210 191.065 C 100.128 191.762,100.175 192.218,100.315 192.078 C 100.455 191.939,100.522 191.368,100.464 190.811 C 100.363 189.822,100.356 189.829,100.210 191.065 M174.119 190.415 C 173.590 190.989,173.647 191.273,174.419 191.926 L 175.094 192.498 174.527 191.829 C 174.059 191.275,174.027 191.079,174.345 190.696 C 174.828 190.114,174.626 189.864,174.119 190.415 M126.023 190.863 C 125.842 191.202,125.736 191.683,125.787 191.933 C 125.839 192.182,126.030 191.905,126.212 191.317 C 126.583 190.115,126.513 189.947,126.023 190.863 M198.841 191.898 C 199.535 193.083,199.550 193.100,199.550 192.731 C 199.550 192.557,199.272 192.096,198.932 191.706 L 198.314 190.998 198.841 191.898 M248.934 191.748 C 249.045 192.161,249.260 192.701,249.413 192.948 C 249.606 193.261,249.630 193.170,249.490 192.648 C 249.380 192.236,249.165 191.695,249.012 191.448 C 248.818 191.135,248.795 191.227,248.934 191.748 M346.287 191.898 C 345.709 192.120,345.439 192.307,345.686 192.312 C 345.934 192.317,346.542 192.136,347.037 191.909 C 348.196 191.378,347.657 191.370,346.287 191.898 M281.170 192.142 C 281.170 192.194,281.609 192.632,282.146 193.117 L 283.121 193.998 282.239 193.023 C 281.418 192.114,281.170 191.910,281.170 192.142 M123.735 193.733 L 122.281 195.118 123.631 193.991 C 125.442 192.479,125.581 192.348,125.370 192.348 C 125.271 192.348,124.535 192.971,123.735 193.733 M67.217 193.248 C 66.639 193.565,66.275 193.829,66.406 193.836 C 66.724 193.853,68.417 192.972,68.417 192.790 C 68.417 192.594,68.400 192.601,67.217 193.248 M290.304 193.923 L 289.422 194.899 290.398 194.017 C 290.934 193.533,291.373 193.094,291.373 193.042 C 291.373 192.810,291.125 193.014,290.304 193.923 M226.941 193.769 C 227.730 193.831,228.945 193.831,229.641 193.768 C 230.338 193.705,229.692 193.654,228.207 193.655 C 226.722 193.656,226.152 193.707,226.941 193.769 M159.040 194.449 C 158.462 194.765,158.097 195.029,158.229 195.036 C 158.547 195.053,160.240 194.173,160.240 193.991 C 160.240 193.794,160.222 193.801,159.040 194.449 M64.216 194.599 C 63.803 194.835,63.601 195.027,63.766 195.027 C 63.931 195.027,64.404 194.835,64.816 194.599 C 65.229 194.363,65.431 194.170,65.266 194.170 C 65.101 194.170,64.629 194.363,64.216 194.599 M219.205 194.456 C 218.804 194.634,219.053 194.663,219.955 194.544 C 220.698 194.445,221.362 194.316,221.430 194.257 C 221.691 194.031,219.778 194.203,219.205 194.456 M319.280 194.444 C 319.527 194.607,320.056 194.742,320.455 194.744 C 321.418 194.750,321.174 194.580,319.880 194.342 C 319.141 194.207,318.963 194.237,319.280 194.444 M329.857 194.655 C 330.146 194.731,330.619 194.731,330.908 194.655 C 331.197 194.580,330.960 194.518,330.383 194.518 C 329.805 194.518,329.569 194.580,329.857 194.655 M115.156 195.574 C 115.544 195.945,116.091 196.241,116.371 196.230 C 116.709 196.217,116.630 196.112,116.135 195.914 C 115.726 195.751,115.179 195.456,114.920 195.258 C 114.661 195.060,114.767 195.203,115.156 195.574 M186.615 195.433 C 186.185 195.799,185.577 196.270,185.265 196.478 C 184.931 196.701,185.068 196.683,185.597 196.434 C 186.093 196.201,186.755 195.727,187.069 195.380 C 187.806 194.566,187.606 194.589,186.615 195.433 M250.635 195.349 C 250.930 195.845,251.374 196.115,251.947 196.147 C 252.692 196.188,252.708 196.174,252.063 196.049 C 251.650 195.969,251.060 195.610,250.751 195.251 L 250.189 194.599 250.635 195.349 M322.206 194.960 C 322.577 195.032,323.185 195.032,323.556 194.960 C 323.927 194.889,323.623 194.830,322.881 194.830 C 322.138 194.830,321.834 194.889,322.206 194.960 M326.861 194.964 C 327.317 195.033,327.992 195.031,328.361 194.960 C 328.730 194.889,328.357 194.832,327.532 194.835 C 326.707 194.837,326.405 194.895,326.861 194.964 M141.037 195.524 C 141.038 195.675,141.386 196.204,141.812 196.699 L 142.585 197.599 141.907 196.549 C 141.038 195.202,141.035 195.198,141.037 195.524 M253.792 196.161 C 254.165 196.233,254.705 196.230,254.992 196.155 C 255.279 196.080,254.974 196.021,254.314 196.025 C 253.653 196.028,253.419 196.089,253.792 196.161 M117.854 196.461 C 118.226 196.532,118.833 196.532,119.205 196.461 C 119.576 196.389,119.272 196.331,118.530 196.331 C 117.787 196.331,117.483 196.389,117.854 196.461 M153.188 197.010 C 152.438 197.371,152.413 197.413,153.038 197.260 C 153.889 197.052,154.844 196.565,154.389 196.572 C 154.224 196.574,153.683 196.771,153.188 197.010 M96.624 197.274 C 96.624 197.508,96.455 197.768,96.249 197.851 C 96.025 197.941,96.085 198.012,96.399 198.026 C 96.688 198.039,96.924 197.858,96.924 197.624 C 96.924 197.391,97.093 197.131,97.299 197.048 C 97.523 196.958,97.463 196.887,97.149 196.873 C 96.860 196.860,96.624 197.041,96.624 197.274 M204.651 197.161 C 205.401 197.389,209.364 197.547,209.127 197.340 C 209.059 197.279,207.854 197.163,206.452 197.081 C 205.049 197.000,204.239 197.036,204.651 197.161 M183.946 197.657 C 183.946 197.826,183.372 198.113,182.671 198.294 L 181.395 198.624 182.596 198.463 C 183.842 198.297,184.505 197.909,184.151 197.554 C 184.038 197.442,183.946 197.488,183.946 197.657 " stroke="none" fill="#98b3de" fill-rule="evenodd"></path><path id="path4" d="M211.783 48.915 L 211.863 65.093 209.307 65.198 L 206.750 65.304 209.377 65.285 L 212.003 65.266 212.081 49.230 C 212.123 40.410,212.056 33.091,211.931 32.966 C 211.805 32.840,211.739 40.018,211.783 48.915 M218.001 48.912 L 218.005 65.266 220.555 65.266 L 223.106 65.266 223.110 48.912 L 223.114 32.558 223.032 48.837 L 222.951 65.116 220.555 65.116 L 218.160 65.116 218.078 48.837 L 217.997 32.558 218.001 48.912 M156.179 40.885 L 156.189 46.962 163.241 46.962 L 170.293 46.962 170.302 40.960 L 170.311 34.959 170.221 40.885 L 170.130 46.812 163.241 46.812 L 156.352 46.812 156.261 40.810 L 156.170 34.808 156.179 40.885 M175.616 49.887 L 175.544 65.116 172.999 65.116 L 170.454 65.116 170.365 58.514 L 170.275 51.913 170.284 58.589 L 170.293 65.266 172.923 65.353 C 174.858 65.417,175.593 65.338,175.702 65.053 C 175.783 64.840,175.814 57.914,175.769 49.662 L 175.688 34.659 175.616 49.887 M194.737 44.568 C 195.473 44.798,196.121 44.939,196.177 44.883 C 196.331 44.729,194.431 44.108,193.879 44.131 C 193.615 44.142,194.001 44.339,194.737 44.568 M242.161 44.474 C 242.243 44.556,242.780 44.781,243.354 44.975 C 243.928 45.169,244.265 45.198,244.104 45.041 C 243.943 44.883,243.406 44.658,242.911 44.540 C 242.416 44.423,242.078 44.393,242.161 44.474 M197.987 46.104 C 198.530 46.576,199.273 47.306,199.637 47.726 C 200.002 48.146,200.172 48.282,200.015 48.026 C 199.498 47.184,198.210 45.865,197.599 45.553 C 197.269 45.384,197.444 45.632,197.987 46.104 M230.796 47.555 C 230.115 48.294,229.557 48.992,229.557 49.106 C 229.557 49.219,229.602 49.256,229.656 49.187 C 229.711 49.119,230.336 48.421,231.045 47.637 C 231.754 46.853,232.267 46.212,232.184 46.212 C 232.102 46.212,231.477 46.816,230.796 47.555 M183.531 47.713 C 182.934 48.373,182.446 49.008,182.446 49.123 C 182.446 49.238,182.547 49.204,182.672 49.047 C 182.796 48.890,183.362 48.256,183.931 47.637 C 184.499 47.018,184.886 46.512,184.790 46.512 C 184.694 46.512,184.128 47.052,183.531 47.713 M246.662 46.606 C 246.662 46.657,247.101 47.096,247.637 47.581 L 248.612 48.462 247.731 47.487 C 246.909 46.578,246.662 46.374,246.662 46.606 M242.011 49.401 C 242.176 49.546,242.850 50.136,243.510 50.714 L 244.710 51.763 243.810 50.762 C 243.316 50.211,242.641 49.621,242.311 49.450 C 241.980 49.279,241.845 49.257,242.011 49.401 M195.840 50.263 C 196.534 51.447,196.549 51.465,196.549 51.096 C 196.549 50.922,196.271 50.460,195.931 50.071 L 195.313 49.362 195.840 50.263 M228.392 51.642 C 228.208 52.171,228.066 52.886,228.077 53.233 C 228.088 53.580,228.279 53.188,228.501 52.363 C 228.961 50.653,228.893 50.205,228.392 51.642 M156.108 58.428 L 156.039 65.094 153.263 65.193 L 150.488 65.292 153.273 65.354 C 156.670 65.430,156.372 66.142,156.264 58.207 L 156.176 51.763 156.108 58.428 M201.726 53.863 C 201.729 54.524,201.791 54.758,201.863 54.385 C 201.934 54.012,201.932 53.472,201.857 53.185 C 201.781 52.898,201.723 53.203,201.726 53.863 M250.322 54.814 C 250.289 55.997,250.185 57.213,250.090 57.515 C 249.929 58.026,249.941 58.028,250.253 57.542 C 250.450 57.236,250.546 56.120,250.485 54.842 L 250.382 52.663 250.322 54.814 M245.243 54.914 C 245.243 55.656,245.302 55.960,245.373 55.589 C 245.445 55.218,245.445 54.610,245.373 54.239 C 245.302 53.867,245.243 54.171,245.243 54.914 M228.078 56.739 C 228.090 57.138,228.222 57.734,228.371 58.065 C 228.561 58.483,228.588 58.301,228.460 57.464 C 228.248 56.071,228.048 55.691,228.078 56.739 M181.569 58.832 C 181.556 59.090,181.755 59.562,182.012 59.883 C 182.471 60.456,182.474 60.456,182.203 59.865 C 182.051 59.535,181.851 59.062,181.760 58.815 C 181.615 58.426,181.590 58.428,181.569 58.832 M197.149 59.032 C 197.397 59.125,198.140 59.600,198.800 60.087 L 200.000 60.972 198.800 59.898 C 198.140 59.307,197.397 58.832,197.149 58.843 C 196.749 58.860,196.749 58.881,197.149 59.032 M229.266 60.302 C 229.256 60.817,232.962 64.516,233.488 64.516 C 233.686 64.516,233.322 64.128,232.678 63.655 C 231.381 62.700,230.113 61.383,229.607 60.465 C 229.387 60.067,229.272 60.012,229.266 60.302 M238.788 61.127 C 239.161 61.199,239.702 61.197,239.988 61.121 C 240.275 61.046,239.970 60.988,239.310 60.991 C 238.650 60.994,238.415 61.056,238.788 61.127 M183.646 62.266 C 184.206 62.843,184.731 63.316,184.814 63.316 C 184.896 63.316,184.506 62.843,183.946 62.266 C 183.386 61.688,182.861 61.215,182.778 61.215 C 182.695 61.215,183.086 61.688,183.646 62.266 M247.393 62.491 L 246.512 63.466 247.487 62.585 C 248.023 62.100,248.462 61.661,248.462 61.609 C 248.462 61.377,248.215 61.582,247.393 62.491 M198.800 63.517 C 198.140 64.109,197.869 64.453,198.200 64.282 C 198.756 63.994,200.413 62.400,200.127 62.428 C 200.057 62.435,199.460 62.925,198.800 63.517 M187.847 65.078 C 188.095 65.226,188.770 65.431,189.347 65.533 C 190.056 65.659,190.202 65.636,189.797 65.462 C 188.870 65.065,187.314 64.758,187.847 65.078 M242.161 65.290 L 240.810 65.704 242.011 65.533 C 242.671 65.439,243.413 65.243,243.661 65.098 C 244.285 64.733,243.754 64.801,242.161 65.290 M194.449 65.416 C 193.846 65.609,193.816 65.658,194.299 65.665 C 194.629 65.670,195.169 65.558,195.499 65.416 C 196.264 65.088,195.475 65.088,194.449 65.416 M147.958 77.027 C 147.946 77.388,148.072 77.767,148.237 77.869 C 148.592 78.089,148.592 77.795,148.237 76.969 C 147.988 76.391,147.978 76.393,147.958 77.027 M154.014 77.271 L 154.839 78.156 155.664 77.271 L 156.489 76.386 155.664 77.105 L 154.839 77.824 154.014 77.105 L 153.188 76.386 154.014 77.271 M160.615 77.213 C 161.069 77.641,161.440 78.155,161.440 78.355 C 161.440 78.556,161.519 78.641,161.615 78.545 C 161.900 78.260,161.177 77.160,160.458 76.784 C 159.905 76.496,159.932 76.569,160.615 77.213 M181.669 81.620 C 181.669 84.509,181.714 85.690,181.769 84.246 C 181.824 82.802,181.824 80.439,181.769 78.995 C 181.714 77.551,181.669 78.732,181.669 81.620 M212.828 77.271 L 213.653 78.156 214.479 77.271 L 215.304 76.386 214.479 77.105 L 213.653 77.824 212.828 77.105 L 212.003 76.386 212.828 77.271 M230.908 76.860 C 231.238 77.038,231.824 77.540,232.210 77.977 C 232.794 78.637,232.856 78.659,232.582 78.110 C 232.230 77.404,231.123 76.513,230.616 76.528 C 230.446 76.533,230.578 76.683,230.908 76.860 M242.284 81.620 C 242.284 84.509,242.329 85.690,242.384 84.246 C 242.439 82.802,242.439 80.439,242.384 78.995 C 242.329 77.551,242.284 78.732,242.284 81.620 M244.084 81.620 C 244.084 84.509,244.129 85.690,244.184 84.246 C 244.239 82.802,244.239 80.439,244.184 78.995 C 244.129 77.551,244.084 78.732,244.084 81.620 M184.093 77.124 C 183.989 77.292,183.779 77.351,183.625 77.257 C 183.472 77.162,183.346 77.315,183.346 77.598 C 183.346 78.074,183.390 78.072,183.946 77.569 C 184.276 77.271,184.546 76.980,184.546 76.923 C 184.546 76.709,184.275 76.830,184.093 77.124 M151.414 78.002 C 151.924 78.124,152.531 78.323,152.764 78.444 C 152.998 78.565,152.926 78.452,152.606 78.192 C 152.285 77.932,151.678 77.733,151.255 77.750 C 150.550 77.778,150.562 77.799,151.414 78.002 M156.266 78.395 C 155.877 78.766,155.797 78.885,156.087 78.659 C 156.377 78.434,157.059 78.144,157.602 78.015 C 158.519 77.797,158.532 77.779,157.781 77.750 C 157.319 77.733,156.670 78.008,156.266 78.395 M186.932 78.025 C 187.502 78.159,188.143 78.508,188.357 78.801 C 188.572 79.095,188.747 79.181,188.747 78.994 C 188.747 78.462,187.493 77.716,186.655 77.750 C 186.030 77.775,186.079 77.824,186.932 78.025 M198.181 78.016 C 198.831 78.141,199.607 78.546,199.906 78.915 C 200.205 79.284,200.450 79.446,200.450 79.275 C 200.450 78.674,198.871 77.719,197.934 77.754 C 197.063 77.786,197.080 77.804,198.181 78.016 M209.477 77.826 C 209.546 77.885,210.075 78.020,210.653 78.126 C 211.392 78.262,211.569 78.231,211.253 78.024 C 210.846 77.757,209.180 77.572,209.477 77.826 M214.877 78.496 C 214.322 78.963,213.970 79.532,213.994 79.922 L 214.035 80.570 214.161 79.926 C 214.332 79.054,215.225 78.297,216.417 78.015 C 217.326 77.799,217.340 77.778,216.602 77.750 C 216.141 77.733,215.407 78.050,214.877 78.496 M226.789 78.187 C 226.340 78.431,225.814 78.932,225.622 79.300 C 225.327 79.865,225.392 79.843,226.039 79.157 C 226.936 78.205,227.999 77.876,229.343 78.134 C 230.031 78.266,230.178 78.234,229.857 78.024 C 229.205 77.596,227.734 77.675,226.789 78.187 M250.413 77.941 C 250.908 78.013,251.515 78.229,251.763 78.421 C 252.155 78.724,252.160 78.702,251.801 78.245 C 251.547 77.920,251.030 77.737,250.451 77.764 L 249.512 77.809 250.413 77.941 M159.138 78.395 C 159.421 78.601,159.773 79.175,159.920 79.670 C 160.109 80.305,160.196 80.391,160.214 79.962 C 160.245 79.247,159.455 78.020,158.965 78.020 C 158.778 78.020,158.856 78.188,159.138 78.395 M184.613 78.487 C 184.246 78.744,183.946 79.107,183.946 79.294 C 183.946 79.481,184.115 79.423,184.321 79.164 C 184.527 78.906,184.966 78.547,185.296 78.366 C 185.626 78.185,185.758 78.034,185.588 78.029 C 185.419 78.024,184.980 78.230,184.613 78.487 M205.371 82.371 C 205.372 84.846,205.418 85.819,205.475 84.532 C 205.531 83.246,205.531 81.220,205.474 80.031 C 205.417 78.842,205.371 79.895,205.371 82.371 M207.953 78.769 C 207.566 79.180,207.306 79.556,207.376 79.603 C 207.445 79.650,207.865 79.313,208.308 78.854 C 208.751 78.395,209.011 78.020,208.885 78.020 C 208.760 78.020,208.340 78.357,207.953 78.769 M164.475 78.470 C 164.481 78.635,164.745 79.310,165.063 79.970 C 165.380 80.630,165.556 80.833,165.453 80.420 C 165.242 79.570,164.460 78.011,164.475 78.470 M220.488 81.573 C 220.619 86.625,220.750 87.213,220.800 82.971 C 220.825 80.825,220.747 78.913,220.626 78.722 C 220.504 78.531,220.442 79.814,220.488 81.573 M246.731 79.220 C 246.731 79.797,246.793 80.034,246.869 79.745 C 246.944 79.456,246.944 78.983,246.869 78.695 C 246.793 78.406,246.731 78.642,246.731 79.220 M161.856 83.121 C 161.856 85.184,161.904 86.028,161.963 84.996 C 162.021 83.965,162.021 82.277,161.963 81.245 C 161.904 80.214,161.856 81.058,161.856 83.121 M190.663 83.121 C 190.663 85.184,190.711 86.028,190.770 84.996 C 190.828 83.965,190.828 82.277,190.770 81.245 C 190.711 80.214,190.663 81.058,190.663 83.121 M218.869 82.971 C 218.870 84.951,218.918 85.722,218.977 84.684 C 219.036 83.646,219.035 82.026,218.976 81.084 C 218.917 80.141,218.869 80.990,218.869 82.971 M231.358 80.110 C 231.358 80.270,229.991 80.442,228.282 80.496 L 225.206 80.594 228.432 80.657 C 231.128 80.710,231.658 80.646,231.658 80.270 C 231.658 80.023,231.590 79.820,231.508 79.820 C 231.425 79.820,231.358 79.950,231.358 80.110 M148.351 83.421 C 148.351 85.319,148.399 86.095,148.459 85.146 C 148.518 84.197,148.518 82.644,148.459 81.695 C 148.399 80.746,148.351 81.523,148.351 83.421 M223.346 81.620 C 223.346 82.528,223.402 82.899,223.471 82.446 C 223.539 81.992,223.539 81.249,223.471 80.795 C 223.402 80.341,223.346 80.713,223.346 81.620 M153.449 83.721 C 153.449 85.454,153.499 86.163,153.560 85.296 C 153.620 84.430,153.620 83.012,153.560 82.146 C 153.499 81.279,153.449 81.988,153.449 83.721 M194.269 81.740 C 193.488 82.521,193.256 82.996,193.283 83.766 L 193.317 84.771 193.533 83.662 C 193.795 82.316,194.309 81.654,195.499 81.136 C 196.108 80.870,196.220 80.740,195.844 80.732 C 195.539 80.725,194.830 81.179,194.269 81.740 M213.764 83.721 C 213.764 85.454,213.814 86.163,213.875 85.296 C 213.935 84.430,213.935 83.012,213.875 82.146 C 213.814 81.279,213.764 81.988,213.764 83.721 M233.458 81.570 C 233.458 81.816,232.274 81.940,229.482 81.986 L 225.506 82.051 229.383 82.145 C 232.973 82.232,234.255 82.017,233.663 81.425 C 233.551 81.313,233.458 81.378,233.458 81.570 M171.376 82.554 C 171.191 83.084,171.093 83.571,171.157 83.635 C 171.221 83.699,171.425 83.318,171.610 82.787 C 171.794 82.257,171.893 81.771,171.829 81.706 C 171.765 81.642,171.561 82.024,171.376 82.554 M183.452 84.171 C 183.451 85.656,183.502 86.302,183.565 85.605 C 183.628 84.909,183.629 83.694,183.567 82.905 C 183.505 82.116,183.453 82.686,183.452 84.171 M198.050 81.739 C 198.050 81.804,198.590 81.909,199.250 81.972 C 199.910 82.035,200.450 81.982,200.450 81.853 C 200.450 81.725,199.910 81.620,199.250 81.620 C 198.590 81.620,198.050 81.674,198.050 81.739 M248.762 81.882 C 249.010 82.030,249.685 82.235,250.263 82.338 C 250.971 82.463,251.118 82.440,250.713 82.267 C 249.785 81.869,248.229 81.563,248.762 81.882 M253.788 82.220 C 254.375 82.877,254.239 84.737,253.534 85.706 L 252.905 86.572 253.684 85.730 C 254.631 84.708,254.766 82.823,253.938 82.197 C 253.492 81.859,253.469 81.862,253.788 82.220 M168.351 83.271 C 168.351 84.007,168.927 84.494,169.238 84.021 C 169.400 83.773,169.533 83.436,169.533 83.271 C 169.533 83.106,169.400 83.173,169.238 83.421 C 168.975 83.821,168.909 83.821,168.647 83.421 C 168.484 83.173,168.351 83.106,168.351 83.271 M199.617 84.259 L 198.934 85.371 199.692 84.529 C 200.109 84.066,200.450 83.560,200.450 83.404 C 200.450 82.963,200.349 83.067,199.617 84.259 M226.322 84.481 C 226.771 84.953,227.192 85.279,227.258 85.205 C 227.324 85.132,226.957 84.745,226.442 84.347 L 225.506 83.622 226.322 84.481 M246.802 84.632 C 246.263 85.228,246.267 85.259,246.970 85.907 L 247.690 86.572 247.103 85.868 C 246.518 85.166,246.518 85.163,247.223 84.593 C 247.611 84.278,247.799 84.021,247.642 84.021 C 247.484 84.021,247.106 84.296,246.802 84.632 M167.157 84.921 C 167.154 85.004,167.345 85.611,167.583 86.272 C 167.821 86.932,168.017 87.202,168.018 86.872 C 168.020 86.373,167.176 84.460,167.157 84.921 M249.737 85.428 C 250.026 85.504,250.499 85.504,250.788 85.428 C 251.077 85.353,250.840 85.291,250.263 85.291 C 249.685 85.291,249.449 85.353,249.737 85.428 M199.812 86.047 C 199.444 86.516,199.453 86.530,199.896 86.184 C 200.301 85.867,200.420 85.867,200.547 86.184 C 200.646 86.431,200.711 86.380,200.726 86.047 C 200.740 85.758,200.632 85.521,200.487 85.521 C 200.342 85.521,200.038 85.758,199.812 86.047 M164.816 92.030 C 165.105 92.105,165.578 92.105,165.866 92.030 C 166.155 91.954,165.919 91.893,165.341 91.893 C 164.764 91.893,164.527 91.954,164.816 92.030 M9.902 171.493 C 9.902 218.205,10.003 241.860,10.203 241.860 C 10.402 241.860,10.503 218.205,10.503 171.493 C 10.503 124.781,10.402 101.125,10.203 101.125 C 10.003 101.125,9.902 124.781,9.902 171.493 M389.497 171.493 C 389.497 218.205,389.598 241.860,389.797 241.860 C 389.997 241.860,390.098 218.205,390.098 171.493 C 390.098 124.781,389.997 101.125,389.797 101.125 C 389.598 101.125,389.497 124.781,389.497 171.493 " stroke="none" fill="#7c7c7c" fill-rule="evenodd"></path></g></svg>