<?xml version="1.0" encoding="utf-8"?>
<!-- Generator: Adobe Illustrator 15.0.0, SVG Export Plug-In . SVG Version: 6.00 Build 0)  -->
<!DOCTYPE svg PUBLIC "-//W3C//DTD SVG 1.1//EN" "http://www.w3.org/Graphics/SVG/1.1/DTD/svg11.dtd">
<svg version="1.1"
	 id="Voat-AllRightsReserved" inkscape:version="0.48.4 r9939" sodipodi:docname="voatgoat.svg" xmlns:sodipodi="http://sodipodi.sourceforge.net/DTD/sodipodi-0.dtd" xmlns:inkscape="http://www.inkscape.org/namespaces/inkscape" xmlns:svg="http://www.w3.org/2000/svg" xmlns:rdf="http://www.w3.org/1999/02/22-rdf-syntax-ns#" xmlns:dc="http://purl.org/dc/elements/1.1/" xmlns:cc="http://creativecommons.org/ns#"
	 xmlns="http://www.w3.org/2000/svg" xmlns:xlink="http://www.w3.org/1999/xlink" x="0px" y="0px" width="315px" height="315px"
	 viewBox="-11.455 -22.696 315 315" enable-background="new -11.455 -22.696 315 315" xml:space="preserve">
<path id="Tail" inkscape:connector-curvature="0" sodipodi:nodetypes="csssssssssssscc" fill="#A9A9A9" d="M275.963,175.344
	c-0.099-7.77-4.2-16.416-6.79-16.416c-1.58,0-2.172,0.844-2.425,3.459c-0.183,1.901-0.483,3.458-0.668,3.458
	c-0.186,0-3.105-2.998-6.491-5.033c-5.03-3.033-4.789-0.952-7.375-4.168c-2.358-2.935-3.56-8.243-4.003-9.734
	c-0.085-0.287,4.438-1.46,9.875-1.965c14.156-1.314,25.474,3.866,32.214,14.744c1.737,2.805,2.443,7.221,1.155,7.221
	c-0.35,0-2.755-3.192-5.389-6.118c-2.632-2.927-5.587-4.523-6.526-4.523c-1.331,0-1.428,0.284-0.436,1.275
	c1.62,1.62,1.53,12.775-0.145,18.326C276.121,180.933,276.096,180.679,275.963,175.344L275.963,175.344z"/>
<path id="Good_Tail" inkscape:connector-curvature="0" sodipodi:nodetypes="csssssssssssscc" display="none" fill="#A9A9A9" d="
	M246.503,148.898c0.895,3.839-3.149,7.059-3.653,8.539c-0.097,0.285,36.52,5.926,34.056-25.343
	c-4.831,6.852-2.764,4.813-7.341,9.717c5.067-16.97-8.943-17.906-10.848-23.417C266.817,140.826,249.442,145.707,246.503,148.898z"
	/>
<path id="Tail-MyLittlePony" display="none" fill="#5F91BB" d="M284.712,173.169c6.385-5.738,14.048-2.604,16.441,0
	c6.172,6.713,7.059,16.982-3.477,25.566c-10.446,8.513-31.782,7.271-35.756-12.38c-1.996-9.873,3.648-17.698,4.507-26.805
	c0.554-5.874-3.32-7.554-4.61-8.157c-5.939-2.992-17.782,8.823-17.782,8.823l-4.123-6.674c0,0,26.84-28.714,40.638-18.356
	c5.144,4.186,7.611,10.252,7.116,15.431c-1.555,16.232-18.915,27.272-7.477,38.931c6.172,4.86,12.521,1.879,14.827-2.59
	C298.706,181.921,294.343,171.421,284.712,173.169z"/>
<path id="Body_2_" inkscape:connector-curvature="0" sodipodi:nodetypes="cssscsccsssssssscsssssssssccsscssssscssccc" fill="#EAEAEA" d="
	M229.643,244.01c0,5.695,4.749,8.229,13.565,7.23c2.906-0.323,5.475-1.301,6.261-2.375c2.08-2.845,2.879-12.557,2.201-26.85
	c-0.678-14.391,0.262-22.75,3.743-33.265c2.719-8.202,2.883-19.788,0.368-25.771c-0.915-2.177-1.663-3.658-1.663-3.985
	c-1.952-7.548-4.671-12.469-6.795-12.965c-17.086-3.992-32.041-1.511-41.132-0.989c-9.094,0.523-22.366,1.405-30.112,0.932
	c-14.714-0.016-28.964-7.349-34.761-15.39c-2.388,4.323-15.366,23.137-16.8,25.337c0,0-6.967,8.818-10.871,13.087
	c1.708,3.334,9.334,18.149,11.386,19.588c14.986,14.297,13.768,9.776,15.533,28.996c0.213,15.967,0.042,23.609,0.016,26.093
	c-0.037,3.343,0.866,4.259,2.333,6.577c1.938,2.316,15.377,0.931,17.203-2.86c0.455-0.944,0.864-10.1,0.91-20.343
	c0.07-15.417,0.344-18.565,1.58-18.284c18.023,4.054,35.101,5.741,53.633,2.746c2.784-0.622,7.504-0.811,13.442-4.663
	L229.643,244.01z"/>
<path id="Back_Leg" inkscape:connector-curvature="0" sodipodi:nodetypes="ssccscss" fill="#A9A9A9" d="M218.879,238.577
	c-2.146-1.491-1.563-6.152-1.69-14.53c0.227-4.362-0.546-12.704-0.546-12.704c5.422-0.684,10.182-2.812,13.14-4.657
	c0,1.896,0.07,8.033,0.137,16.708l-0.137,16.702C229.782,240.095,221.317,240.273,218.879,238.577z"/>
<path id="Front_Leg" inkscape:connector-curvature="0" sodipodi:nodetypes="cscssscssc" fill="#A9A9A9" d="M130.179,237.766
	c-1.735-1.916-0.825-2.426,0-22.705c0.362-8.925,0.264-10.767-0.158-21.878l3.974,3.509c5.676,5.005,5.194,5.613,6.16,15.26
	c0.905,5.508,0.502,13.633,0.573,18.389l-0.032,8.721l-3.961,0.272C134.015,239.518,131.573,239.308,130.179,237.766
	L130.179,237.766z"/>
<path id="Neck" inkscape:connector-curvature="0" sodipodi:nodetypes="scssssss" fill="#D4D4D4" d="M116.994,175.858
	c-1.282-2.185-3.248-6.88-3.248-6.88l9.956-12.332c5.074-7.378,11.088-16.209,13.102-19.621c3.08-5.21,4.339-6.896,4.855-7.848
	c-0.354,1.312-1.566,8.506-2.461,11.641c-3.836,13.451-16.859,41.894-17.367,42.538C121.649,183.26,119.109,179.458,116.994,175.858
	L116.994,175.858z"/>
<path id="Goatee" inkscape:connector-curvature="0" sodipodi:nodetypes="sccssssscssss" fill="#A9A9A9" d="M77.11,193.036
	c-0.974-3.153-1.215-7.413-1.218-9.38c0-3.976,0.667-4.454,1.199-5.519c10.085,7.252,20.539,3.45,24.197,0.79
	c0.788,1.455,1.803,4.519,1.875,8.921c0.05,3.08-0.624,4.578-1.753,9.107c-1.629,3.003-0.279-1.228-1.039-6.216
	c-0.51-3.343-3.317-3.985-5.051-2.324c-3.276,4.998-8.518,12.069-6.334,6.235c0.265-1.79,1.607-5.691-3.182-6.67
	c-1.995-0.617-3.481,1.831-4.189,3.126C79.39,195.178,81.379,206.851,77.11,193.036z"/>
<path id="bad_left_horn_2_" inkscape:connector-curvature="0" sodipodi:nodetypes="cscc" display="none" fill="#5F91BB" d="
	M55.642,51.74c-1.868-4.594-8.589-13.419-15.526-16.803c-9.678-4.72-21.758-1.115-22.375-0.593
	c-0.387,0.33,8.866,4.557,10.187,11.889c1.45,8.062-4.902,18.43-5.044,18.545C28.713,62.134,48.129,53.794,55.642,51.74z"/>
<path id="bad_left_horn_1_" inkscape:connector-curvature="0" sodipodi:nodetypes="cscc" display="none" fill="#5F91BB" d="
	M120.604,51.74c1.868-4.594,8.589-13.419,15.526-16.803c9.678-4.72,21.758-1.115,22.375-0.593c0.387,0.33-8.866,4.557-10.187,11.889
	c-1.45,8.062,4.902,18.43,5.044,18.545C147.533,62.134,128.117,53.794,120.604,51.74z"/>
<path id="bad_left_horn_4_" inkscape:connector-curvature="0" sodipodi:nodetypes="cscc" display="none" fill="#5F91BB" d="
	M24.402,62.097c-0.525-1.715,4.87-8.172,1.207-15.169C21.042,38.204,7.021,35.291,7.68,31.78c9.067,4.269,20.35-1.361,31.005,4.647
	c11.214,6.323,12.968,17.081,13.043,17.082C46.699,54.832,30.188,59.538,24.402,62.097z"/>
<path id="bad_right_horn_1_" inkscape:connector-curvature="0" sodipodi:nodetypes="cscc" display="none" fill="#5F91BB" d="
	M151.118,62.097c0.525-1.715-4.871-8.171-1.207-15.168c4.568-8.725,18.588-11.637,17.929-15.149
	c-9.067,4.269-20.349-1.361-31.005,4.647c-11.214,6.323-12.968,17.082-13.043,17.082C128.821,54.832,145.332,59.538,151.118,62.097z
	"/>
<path id="devil_right_horn" inkscape:connector-curvature="0" sodipodi:nodetypes="cscc" display="none" fill="#6F64BA" d="
	M152.212,61.912c-5.769-10.702-10.463-14.918-10.929-24.296c-0.505-10.174,11.421-24.941,6.052-34.719
	c-5.396-9.827-11.198-15.932-12.171-19.354c-1.19-4.188,5.545-8.216,5.853-9.533c-2.45,0.386-11.531,4.977-12.216,9.134
	c-0.868,5.269,5.706,13.653,5.971,22.347c0.325,10.642-11.979,18.024-15.171,25.606c-4.253,10.103-0.967,20.242-1.025,20.243
	C124.768,52.97,145.091,58.762,152.212,61.912z"/>
<path id="devil_left_horn" inkscape:connector-curvature="0" sodipodi:nodetypes="cscc" display="none" fill="#6F64BA" d="
	M24.181,62.222C29.95,51.519,34.645,47.304,35.11,37.926c0.505-10.174-11.421-24.941-6.052-34.718
	c5.397-9.827,11.198-15.932,12.171-19.354c1.191-4.188-5.544-8.216-5.853-9.533c2.451,0.387,11.531,4.978,12.216,9.134
	c0.868,5.269-5.706,13.653-5.971,22.347C41.296,16.444,53.6,23.826,56.793,31.408c4.253,10.103,0.966,20.242,1.024,20.243
	C51.625,53.28,31.303,59.073,24.181,62.222z"/>
<path id="bad_right_horn" inkscape:connector-curvature="0" sodipodi:nodetypes="cscc" fill="#5F91BB" d="M118.632,51.498
	c0.183-0.001,11.703-3.87,15.668-11.037c3.607-6.52-0.901-15.64-0.391-15.651c0.806-0.015,12.449,4.816,16.976,14.587
	c3.243,7.006,3.079,18.076,1.627,22.818C145.391,59.066,124.572,52.91,118.632,51.498z"/>
<path id="bad_left_horn" inkscape:connector-curvature="0" sodipodi:nodetypes="cscc" fill="#5F91BB" d="M24.181,62.23
	c-1.452-4.743-1.813-15.829,1.431-22.833c4.525-9.771,16.169-14.602,16.976-14.587c0.509,0.012-3.998,9.132-0.392,15.651
	c3.965,7.167,15.438,11.196,15.621,11.197C51.625,53.288,31.303,59.08,24.181,62.23z"/>
<path id="Left_high_horn" inkscape:connector-curvature="0" sodipodi:nodetypes="cscc" display="none" fill="#6F64BA" d="
	M24.181,62.23c-0.754-2.462-4.8-35.349,8.247-59.798c12.084-22.645,41.292-37.075,41.68-37.068
	c0.272,0.006-15.969,15.194-20.396,38.132c-3.862,20.005,4.02,48.162,4.105,48.163C51.625,53.288,31.303,59.08,24.181,62.23z"/>
<path id="right_high_horn" inkscape:connector-curvature="0" sodipodi:nodetypes="cscc" display="none" fill="#6F64BA" d="
	M152.32,62.23c0.755-2.462,4.801-35.349-8.247-59.798c-12.083-22.645-41.292-37.075-41.68-37.068
	c-0.271,0.006,15.969,15.194,20.396,38.132c3.861,20.005-4.021,48.162-4.105,48.163C124.877,53.288,145.199,59.08,152.32,62.23z"/>
<path id="good_left_horn" inkscape:connector-curvature="0" sodipodi:nodetypes="cscc" display="none" fill="#5F91BB" d="
	M24.253,62.08c5.109-9.74,16.916-37.296,18.3-37.27c1.069,0.022,15.085,26.821,15.437,26.825
	C52.193,52.921,31.531,59.184,24.253,62.08z"/>
<path id="good_right_horn" inkscape:connector-curvature="0" sodipodi:nodetypes="cscc" display="none" fill="#5F91BB" d="
	M152.416,62.144c-5.107-9.74-17.323-37.36-18.707-37.333c-1.068,0.022-15.063,26.821-15.415,26.825
	C124.127,53.044,145.292,58.994,152.416,62.144z"/>
<path id="good_left_horn_1_" inkscape:connector-curvature="0" sodipodi:nodetypes="cscc" display="none" fill="#5F91BB" d="
	M24.253,62.113c0-9.532,4.272-13.921,15.047-17.38c13.302-1.382,18.338,6.931,18.689,6.933
	C52.194,52.953,31.531,59.215,24.253,62.113z"/>
<path id="good_left_horn_2_" inkscape:connector-curvature="0" sodipodi:nodetypes="cscc" display="none" fill="#5F91BB" d="
	M152.7,62.113c0-9.532-4.272-13.921-15.047-17.38c-13.302-1.382-18.338,6.931-18.689,6.933
	C124.759,52.953,145.421,59.215,152.7,62.113z"/>
<path id="Head" inkscape:connector-curvature="0" sodipodi:nodetypes="cssscsccsssssssscsssssssssccsscssssscssccc" fill="#EAEAEA" d="
	M59.753,162.596c-13.583-15.85-34.009-48.859-36.936-60.517c-2.517-14.092-3.109-20.991-2.618-27.688
	c0.922-4.077,2.239-9.373,3.981-12.161c0.74-1.184,23.678-13.597,65.125-12.708c45.548-0.013,62.018,11.097,63.207,12.693
	c2.378,3.186,3.926,7.257,5.249,12.076c1.89,6.883,1.47,15.932-1.521,27.847c-2.805,11.174-25.093,46.749-36.394,60.45
	c-1.933,2.345-17.083,21.217-30.54,21.241C77.026,183.856,66.353,170.3,59.753,162.596z"/>
<path id="AvatarArrow" display="none" fill="#3FE0FF" d="M121.884,68.709l-32.667,40.734L55.412,68.788l18.979-0.106V49.778
	c0,0,11.999-0.877,14.748-0.656c3.991-0.001,13.719,0.747,13.719,0.747v18.813L121.884,68.709z"/>
<path id="circle_left_horn" inkscape:connector-curvature="0" sodipodi:nodetypes="cscc" display="none" fill="#8E0202" d="
	M23.54,62.222c-0.463-1.513-8.932-11.634-26.274-9.065c-43.099,6.385-46.032,104.687,59.91,68.772
	C-3.54,185.512-93.832,119.25-47.03,47.304c14.633-22.494,32.75-30.08,59.992-25.141c28.187,5.11,44.187,29.487,44.214,29.488
	C50.984,53.28,30.662,59.073,23.54,62.222z"/>
<path id="circle_right_horn" inkscape:connector-curvature="0" sodipodi:nodetypes="cscc" display="none" fill="#8E0202" d="
	M152.64,61.956c0.462-1.513,8.932-11.634,26.274-9.065c43.099,6.385,46.032,104.687-59.91,68.772
	c60.716,63.583,151.007-2.679,104.205-74.625c-14.632-22.493-32.749-30.08-59.992-25.141c-28.186,5.11-44.186,29.487-44.213,29.488
	C125.195,53.014,145.518,58.806,152.64,61.956z"/>
<path id="rigth_ear_1_" inkscape:connector-curvature="0" sodipodi:nodetypes="ssscssss" display="none" fill="#A9A9A9" d="
	M158.387,62.312c-4.322,1.485-4.563,1.767-3.927,4.515c2.016,8.716,2.712,14.96,2.063,18.483l-0.763,3.981l5.063-5.154
	c2.768-2.817,7.896-6.968,11.402-9.219c5.899-3.792,6.327-4.315,5.751-7.066C176.555,61.027,168.627,58.787,158.387,62.312
	L158.387,62.312z"/>
<path id="left_ear_1_" inkscape:connector-curvature="0" sodipodi:nodetypes="ssscssss" display="none" fill="#A9A9A9" d="
	M19.057,62.253c4.319,1.486,4.824,1.81,4.188,4.555c-1.568,8.614-1.744,14.587-1.967,18.325L21.199,89.2l-4.582-5.122
	c-2.621-2.931-7.894-6.966-11.4-9.216c-5.899-3.794-6.326-4.32-5.753-7.067C0.892,60.969,8.817,58.727,19.057,62.253L19.057,62.253z
	"/>
<path id="rigth_ear" inkscape:connector-curvature="0" sodipodi:nodetypes="ssscssss" fill="#A9A9A9" d="M160.387,103.734
	c-4.322-1.62-4.562-1.927-3.926-4.926c2.016-9.513,2.712-16.327,2.063-20.171l-0.763-4.345l5.063,5.625
	c2.767,3.075,7.896,7.604,11.402,10.061c5.899,4.138,6.327,4.71,5.751,7.712C178.555,105.136,170.627,107.581,160.387,103.734
	L160.387,103.734z"/>
<path id="left_ear" inkscape:connector-curvature="0" sodipodi:nodetypes="ssscssss" fill="#A9A9A9" d="M18.057,103.799
	c4.319-1.622,4.824-1.974,4.188-4.971c-1.568-9.4-1.744-15.919-1.967-19.998l-0.079-4.438l-4.582,5.59
	c-2.621,3.199-7.894,7.602-11.4,10.059c-5.899,4.141-6.326,4.714-5.753,7.712C-0.108,105.2,7.817,107.646,18.057,103.799
	L18.057,103.799z"/>
<path id="nose_1_" inkscape:connector-curvature="0" sodipodi:nodetypes="ssscs" fill="#6F64BA" d="M77.925,151.739
	c8.598-0.972,14.822-0.557,22.305-0.014c1.354,0.098-9.495,17.912-10.946,18.137C87.321,169.418,77.127,151.828,77.925,151.739z"/>
<path id="bad_nose" inkscape:connector-curvature="0" sodipodi:nodetypes="ssscs" display="none" fill="#6F64BA" d="M77.925,152.181
	c8.243,1.628,14.451,1.539,22.305-0.012c1.332-0.264-9.495,17.912-10.946,18.136C87.321,169.861,77.137,152.026,77.925,152.181z"/>
<path id="bad_right_eye_2_" inkscape:connector-curvature="0" sodipodi:nodetypes="ssssss" fill="#555555" d="M115.357,104.875
	c-1.27-1.222-2.465-3-2.883-5.731c-0.861-2.71,10.342-2.621,17.525-7.587c0.894,4.646-1.352,12.675-5.617,14.82
	C121.302,107.927,118.338,107.74,115.357,104.875z"/>
<path id="bad_right_eye_1_" inkscape:connector-curvature="0" sodipodi:nodetypes="ssssss" fill="#555555" d="M61.938,104.875
	c1.27-1.222,2.465-3,2.883-5.731c0.861-2.71-10.342-2.621-17.525-7.587c-0.894,4.646,1.352,12.675,5.617,14.82
	C55.994,107.927,58.958,107.74,61.938,104.875z"/>
<path id="good_left_eye" inkscape:connector-curvature="0" sodipodi:nodetypes="ssssss" display="none" fill="#555555" d="
	M52.742,106.29c-5.993-3.016-7.807-12.226-2.871-17.164c3.784-3.782,7.764-4.668,11.584-0.725c2.332,2.408,3.352,3.922,3.352,8.499
	c0,3.99-1.463,6.368-3.04,7.886C58.785,107.653,55.823,107.841,52.742,106.29z"/>
<path id="good_right_eye" inkscape:connector-curvature="0" sodipodi:nodetypes="ssssss" display="none" fill="#555555" d="
	M118.079,106.29c-5.995-3.016-7.807-12.226-2.871-17.164c3.783-3.782,7.763-4.67,11.584-0.725c2.331,2.408,3.352,3.922,3.352,8.499
	c0,3.992-1.463,6.368-3.042,7.886C124.123,107.656,121.16,107.843,118.079,106.29z"/>
<path id="Ear_Ring" display="none" fill="#F9B406" d="M173.976,104.771l2.104-1.026c0.503,2.238,0.054,5.058-1.532,6.948
	c-2.701,3.219-7.499,3.64-10.718,0.938c-3.219-2.701-3.64-7.5-0.938-10.72c1.688-2.011,4.195-2.93,6.625-2.676
	c0,0,0.351,0.788,0.377,1.089c0.031,0.367-0.738,1.14-0.738,1.14c-1.672-0.135-3.381,0.514-4.538,1.895
	c-1.903,2.267-1.607,5.647,0.659,7.549c2.266,1.9,5.646,1.605,7.547-0.662c1.084-1.29,1.453-2.938,1.154-4.475"/>
<path id="Nose_Ring" display="none" fill="#F9B406" d="M94.135,164.594c0,0-0.665,0.175-0.996,0.59
	c-0.252,0.321-0.247,1.295-0.247,1.295L94.135,164.594c1.825,1.391,3.002,3.585,3.002,6.053c0,4.203-3.406,7.608-7.608,7.608
	s-7.609-3.405-7.609-7.608c0-2.626,1.33-4.94,3.354-6.309c0,0,0.776,0.378,0.989,0.593c0.26,0.259,0.167,1.347,0.167,1.347
	c-1.367,0.971-2.259,2.566-2.259,4.369c0,2.959,2.399,5.357,5.357,5.357c2.958,0,5.357-2.398,5.357-5.357
	c0-1.685-0.777-3.185-1.993-4.17"/>
</svg>
