<?xml version="1.0" encoding="utf-8"?>
<!-- Generator: Adobe Illustrator 15.0.0, SVG Export Plug-In . SVG Version: 6.00 Build 0)  -->
<!DOCTYPE svg PUBLIC "-//W3C//DTD SVG 1.1//EN" "http://www.w3.org/Graphics/SVG/1.1/DTD/svg11.dtd">
<svg version="1.1" xmlns="http://www.w3.org/2000/svg" xmlns:xlink="http://www.w3.org/1999/xlink" x="0px" y="0px" width="586px"
	 height="162px" viewBox="4.138 331.445 586 162" enable-background="new 4.138 331.445 586 162" xml:space="preserve">
<g id="svg2" inkscape:version="0.91 r13725" sodipodi:docname="Voat-logo.svg" inkscape:export-ydpi="959.74036" inkscape:export-xdpi="959.74036" inkscape:export-filename="L:\Data\Application\Inkscape\Voat-logo-1527x2160.png" xmlns:sodipodi="http://sodipodi.sourceforge.net/DTD/sodipodi-0.dtd" xmlns:inkscape="http://www.inkscape.org/namespaces/inkscape" xmlns:svg="http://www.w3.org/2000/svg" xmlns:rdf="http://www.w3.org/1999/02/22-rdf-syntax-ns#" xmlns:dc="http://purl.org/dc/elements/1.1/" xmlns:cc="http://creativecommons.org/ns#">
	
		<path id="T" inkscape:connector-curvature="0" sodipodi:nodetypes="ccccccccccccccccc" fill="#FFFFFF" fill-opacity="0.98" stroke="#AAAAAA" stroke-width="2" d="
		M572.888,336.57c9.491-0.003,10,0.658,10,12.622v13.25c0,11.985-0.537,12.002-9.906,12.002h-29.857
		c-9.173,0-10.993,1.043-10.986,10.875v92.375c-0.007,6.435-2.031,8.875-8.124,8.875h-21.751c-5.406,0-8.063-2.16-8.125-8.251
		V385.32c-0.239-10.178-2-10.875-11.131-10.875h-29.702c-9.635-0.021-10.167,0.029-10.167-12.002v-13.22
		c0-11.988,0.448-12.656,10.225-12.653H572.888z"/>
	
		<path id="A" inkscape:connector-curvature="0" sodipodi:nodetypes="ccccccccc" fill="#4399CD" stroke="#52ADE1" stroke-width="2" d="
		M380.563,343.452l-67.042,117.503c-5.838,9.588-3.087,25.49,8.881,25.49l0,0h124.856l0,0c14.438,0,15.494-17.213,10.854-25.484
		L391.423,343.13C385.898,334.688,386.735,333.579,380.563,343.452L380.563,343.452z"/>
	<path id="O" inkscape:connector-curvature="0" fill="#FFFFFF" stroke="#AAAAAA" stroke-width="2" d="M233.828,336.574
		c-41.415,0.007-74.993,33.578-74.993,74.993c0,41.42,33.571,75,74.993,75.007c41.422,0,75-33.572,75.007-74.994v-0.007
		C308.828,370.144,275.249,336.566,233.828,336.574z M233.886,374.445c26.16,0,38.543,21.039,38.543,38.238
		c0,21.259-15.525,38.762-38.543,38.762c-23.57,0-38.648-17.724-38.456-38.762C195.609,393.171,209.687,374.445,233.886,374.445z"/>
	
		<path id="V" inkscape:connector-curvature="0" sodipodi:nodetypes="ccccccccc" fill="#6F64BA" stroke="#7D75B6" stroke-width="2" d="
		M76.814,479.771L9.807,361.988c-4.717-8.441-4.539-23.543,11.136-25.543h122.53l0,0c16.368,0,15.289,17.573,10.651,25.865
		l-66.456,117.79C82.146,488.561,82.292,488.684,76.814,479.771L76.814,479.771z"/>
	
		<text transform="matrix(1.8088 0 0 1 324.1377 478.3032)" display="none" fill="#FFFFFF" font-family="'Verdana'" font-size="27.1186">TRUE</text>
	<text transform="matrix(1 0 0 1 4.1377 441.4448)" display="none" fill="#F47808" font-family="'MyriadPro-Bold'" font-size="83">MICK IS RETARD</text>
</g>
<g id="Layer_2" display="none">
	<path display="inline" fill="#FFFFFF" stroke="#000000" stroke-width="2" stroke-miterlimit="10" d="M277.311,416.09
		c17.465,11.643-15.56,46.349-49.502,46.355c-27.54,0.005-61.367-35.075-45.79-46.355c14.352-10.393,11.993,28.825,47.065,27.567
		C271.679,442.13,260.405,404.819,277.311,416.09z"/>
	<ellipse display="inline" cx="206.007" cy="383.278" rx="7.131" ry="5.835"/>
	<ellipse display="inline" cx="258.902" cy="390.235" rx="7.236" ry="8.209"/>
	
		<image display="inline" overflow="visible" width="1920" height="1922" xlink:href="../../../../../../Dump/CORONA.png"  transform="matrix(0.0832 0 0 0.0832 154.3887 331.4448)">
	</image>
	
		<ellipse display="inline" fill="#FFFFFF" stroke="#000000" stroke-width="2" stroke-miterlimit="10" cx="205.356" cy="389.961" rx="17.782" ry="19.405"/>
	
		<ellipse display="inline" fill="#FFFFFF" stroke="#000000" stroke-width="2" stroke-miterlimit="10" cx="255.123" cy="385.102" rx="21.015" ry="27.343"/>
</g>
</svg>
